<?xml version="1.0" encoding="UTF-8" standalone="no"?>
<svg width="455px" height="304px" viewBox="0 0 455 304" version="1.1" xmlns="http://www.w3.org/2000/svg" xmlns:xlink="http://www.w3.org/1999/xlink" xmlns:sketch="http://www.bohemiancoding.com/sketch/ns">
    <!-- Generator: Sketch 3.3.2 (12043) - http://www.bohemiancoding.com/sketch -->
    <title>Miami Tattoos Logo Vector</title>
    <desc>Created with Sketch.</desc>
    <defs></defs>
    <g id="Page-1" stroke="none" stroke-width="1" fill="none" fill-rule="evenodd" sketch:type="MSPage">
        <g id="Miami-Tattoos-Logo-Vector" sketch:type="MSLayerGroup" fill="#000000">
            <path d="M228.4229,86.4082 C232.0949,84.7272 233.1849,77.0582 231.1509,70.3062 C228.6769,62.0692 224.2429,50.8902 221.3929,53.0452 C220.5759,53.6612 223.1329,55.3142 224.2359,61.5792 C225.1359,66.6812 222.2329,66.2702 222.0279,63.8642 C220.8399,56.6102 218.7179,53.9622 215.6039,49.7682 C213.1099,46.4282 207.3949,42.2832 206.5929,43.1932 C205.7909,44.1022 207.6749,45.8722 208.1769,47.7942 C208.9129,50.5882 207.9849,53.9952 205.1929,47.5622 C203.1519,42.2082 199.1329,39.1072 194.0579,38.2412 C192.7269,38.0952 192.7879,39.3582 193.9479,40.4072 C193.9479,40.4072 196.4929,42.5202 196.8479,44.6812 C197.4649,48.4992 196.1049,50.2142 195.0849,48.6262 C190.8999,42.9382 183.8849,41.7642 172.6659,42.7622 C170.3119,42.9712 166.3899,43.6002 166.6979,44.3632 C167.3569,45.9852 182.6799,44.4842 181.3469,46.8022 C178.2169,46.7502 172.7539,47.4802 167.8459,49.1252 C164.0249,50.4582 160.8509,53.0712 158.0409,56.0402 C155.9019,58.5982 155.4169,59.6012 158.2239,58.5632 C170.1069,50.1262 183.9949,49.4162 199.8959,56.7022 C213.2199,63.0792 222.7159,72.9102 228.4229,86.4082" id="Fill-1" sketch:type="MSShapeGroup"></path>
            <path d="M232.9209,56.0508 C229.6599,56.1688 225.8949,50.7858 224.6929,44.9128 C223.2269,37.7538 221.9909,27.6368 224.8599,28.1908 C225.6749,28.3468 224.5119,30.5588 226.1759,35.7118 C227.5359,39.9048 229.4299,38.5008 228.6409,36.5988 C226.6449,30.6708 227.1129,27.8648 227.6869,23.5278 C228.1449,20.0618 230.5649,14.7718 231.4909,15.1588 C232.4149,15.5418 231.7749,17.5868 232.1659,19.2278 C232.7499,21.6168 234.7299,23.8448 234.1979,17.9298 C233.5489,13.1138 235.1869,9.2538 238.4389,6.6848 C239.3299,6.0688 239.7819,7.0428 239.3639,8.2788 C239.3639,8.2788 238.3799,10.8368 238.9789,12.6028 C240.0419,15.7198 241.6719,16.5048 241.7689,14.9228 C242.5119,9.0428 247.0299,5.5058 255.3689,2.0238 C257.1259,1.2888 260.1459,0.2888 260.2279,0.9808 C260.3969,2.4528 248.9449,7.1068 250.7899,8.3538 C252.9919,7.1328 257.1589,5.6218 261.2739,5.0088 C264.5099,4.5708 267.7809,5.3538 270.9339,6.5348 C273.4469,7.6608 274.1779,8.2348 271.7829,8.5078 C260.0649,6.6228 249.9569,11.3278 241.5199,22.8368 C234.5749,32.6858 231.6889,43.6918 232.9209,56.0508" id="Fill-3" sketch:type="MSShapeGroup"></path>
            <path d="M236.6914,55.9023 C234.5894,53.4013 236.5034,47.1113 240.3874,42.5563 C245.1224,36.9913 252.3194,29.7823 253.6404,32.3903 C254.0344,33.1323 251.5754,33.5733 248.5424,38.0623 C246.0784,41.7143 248.3494,42.3453 249.3624,40.5523 C252.8004,35.3283 255.2924,33.9693 259.0554,31.7563 C262.0624,29.9773 267.7184,28.6403 267.9864,29.6033 C268.2544,30.5743 266.2474,31.3243 265.2024,32.6453 C263.6744,34.5703 263.1454,37.5083 267.4694,33.4433 C270.8584,29.9693 274.9024,28.8873 278.9334,29.8783 C279.9644,30.1973 279.4684,31.1563 278.2514,31.5893 C278.2514,31.5893 275.6284,32.3883 274.6044,33.9423 C272.8104,36.6973 273.1984,38.4723 274.5004,37.5743 C279.5784,34.5393 285.1494,35.9313 293.0134,40.3723 C294.6724,41.3043 297.3204,43.0733 296.8274,43.5613 C295.7724,44.6053 285.0684,38.4303 285.2204,40.6533 C287.5334,41.6373 291.2894,43.9923 294.3044,46.8713 C296.6364,49.1563 298.0414,52.2183 299.0414,55.4343 C299.7144,58.1173 299.7114,59.0423 298.0194,57.3233 C292.2894,46.9063 282.3614,41.8173 268.1224,42.2503 C256.0954,42.8263 245.6554,47.3243 236.6914,55.9023" id="Fill-5" sketch:type="MSShapeGroup"></path>
            <path d="M63.7207,223.4521 L63.6097,223.4521 C62.9437,223.5631 62.2777,223.6751 61.6117,223.6751 C60.7237,223.7851 59.9467,223.8961 59.0587,223.8961 L58.9477,223.8961 C56.5057,224.1181 53.8417,224.1181 51.3997,224.1181 L51.2887,224.1181 C50.4007,224.2291 49.5127,224.2291 48.6247,224.2291 C47.7367,224.2291 46.8487,224.3411 45.9607,224.3411 C45.0727,224.4511 44.2957,224.4511 43.5187,224.5621 C42.7417,224.6741 42.0757,224.6741 41.2987,224.7841 L38.9677,224.7841 C37.3027,224.8951 35.6377,224.8951 33.9727,225.1171 C29.8657,225.5611 25.7587,225.5611 21.4297,225.5611 C19.6537,225.4501 17.9887,225.3401 16.3237,225.3401 C14.6587,225.2281 12.8827,225.1171 11.2177,225.1171 C8.8867,224.8951 6.3337,224.6741 3.8917,224.5621 C3.3367,224.5621 3.0037,224.6741 2.6707,224.7841 C2.5597,224.8951 2.4487,224.8951 2.3377,224.8951 L0.1177,225.4501 L1.4497,227.4481 C1.6717,227.7811 1.8937,228.1141 2.2267,228.3371 C2.2267,228.4471 2.3377,228.4471 2.3377,228.5581 L2.3377,231.1111 L2.3377,232.7761 C2.3377,233.8871 2.4487,235.1071 2.5597,236.3281 C2.5597,237.5501 2.6707,238.6591 2.7817,239.8811 L2.7817,240.1021 C2.8927,241.5461 3.0037,242.9881 3.1147,244.4311 C3.2257,244.8761 3.3367,245.3191 3.5587,245.7641 C4.0027,246.5401 5.0017,246.9841 6.1117,246.6511 C7.3327,246.3181 8.1097,245.0981 7.8877,243.6541 C7.7767,242.9881 7.6657,242.4331 7.6657,241.8791 C7.5547,241.3231 7.4437,240.7681 7.3327,240.2141 C7.3327,239.6581 7.3327,239.2151 7.2217,238.7701 C7.2217,238.2161 7.2217,237.7711 7.1107,237.2171 C7.1107,236.6611 7.1107,236.2181 6.9997,235.6621 L6.9997,234.3301 C6.9997,232.6651 6.9997,231.1111 7.1107,229.3361 C7.4437,229.3361 7.7767,229.3361 8.1097,229.4461 L9.6637,229.4461 L9.6637,229.5571 C11.1067,229.5571 12.5497,229.6691 13.8817,229.7791 C15.2137,229.7791 16.4347,229.8901 17.7667,229.8901 C18.8767,230.0021 20.3197,230.0021 21.6517,230.0021 C22.3177,229.8901 22.8727,229.8901 23.5387,229.8901 C24.9817,229.8901 26.4247,229.8901 27.9787,229.7791 L31.8637,229.7791 L31.8637,230.0021 C31.7527,230.4451 31.7527,230.8891 31.8637,231.3341 L31.6417,232.1101 C31.5307,232.3321 31.4197,232.6651 31.4197,233.1091 C31.1977,235.8851 31.1977,238.5491 31.5307,240.9901 C31.6417,242.8781 31.6417,244.8761 31.7527,246.8731 L31.7527,249.8701 L31.7527,251.4251 C31.6417,252.3121 31.6417,253.2001 31.6417,253.9771 C31.7527,255.9751 31.9747,257.8621 32.0857,259.7501 C32.1967,260.4151 32.1967,261.1921 32.3077,261.9701 C31.1977,261.9701 30.0877,261.8581 28.9777,261.7471 L28.7557,261.7471 C27.6457,261.6371 26.6467,261.5251 25.4257,261.5251 C24.6487,261.5251 23.8717,261.9701 23.4277,262.6361 C22.9837,263.1901 22.8727,263.9681 22.9837,264.7441 C23.2057,265.8541 24.6487,266.4091 25.5367,266.4091 L31.9747,266.4091 L32.4187,266.4091 L32.4187,267.0751 C32.3077,268.1851 32.1967,269.1841 32.1967,270.4051 C32.3077,273.5141 32.4187,276.8441 32.4187,280.1741 L32.4187,281.6161 C32.3077,282.1721 32.3077,282.6151 32.3077,283.1711 L32.3077,283.2811 C32.4187,283.8371 32.4187,284.3911 32.4187,285.0571 C32.5297,286.0561 32.6407,287.1671 32.6407,288.0551 L32.3077,298.4881 C31.3087,298.4881 30.1987,298.3781 29.0887,298.3781 C28.2007,298.3781 27.4237,298.4881 26.6467,298.7111 C25.7587,298.9321 25.4257,299.8201 25.2037,300.1531 L25.2037,300.2651 L23.9827,302.0401 L25.9807,302.7061 C26.0917,302.7061 26.0917,302.7061 26.2027,302.8171 C26.4247,302.9291 26.8687,303.0391 27.3127,303.1501 L28.5337,303.1501 L28.8667,303.1501 L31.0867,303.1501 C32.7517,303.2621 34.3057,303.2621 35.9707,303.2621 L38.7457,303.2621 L41.5207,303.2621 C42.6307,303.2621 43.6297,302.5961 43.8517,301.7071 C44.0737,300.8191 43.6297,300.1531 43.4077,299.7101 C43.1857,299.2651 42.8527,298.9321 42.1867,298.7111 L41.9647,298.5991 L41.6317,298.5991 C41.5207,298.5991 41.2987,298.5991 41.0767,298.4881 C40.0777,298.3781 38.8567,298.2661 37.7467,298.4881 L37.5247,298.5991 L37.0807,298.5991 C37.1917,298.0451 37.1917,297.3791 37.1917,296.7131 C37.1917,295.7141 37.1917,294.7151 37.3027,293.7161 L37.3027,293.6041 L37.3027,291.8281 L37.3027,288.2761 C37.3027,286.5011 37.1917,284.6131 37.0807,282.8381 C37.0807,282.5051 37.0807,282.1721 37.1917,281.7271 C37.1917,280.9501 37.3027,279.9511 37.1917,278.9521 C36.7477,275.1791 36.7477,271.5151 37.1917,267.7411 L37.1917,267.5191 C37.1917,267.1861 37.1917,266.7421 37.0807,266.2991 C37.7467,266.4091 38.4127,266.2991 39.0787,266.2991 L40.1887,266.2991 C40.5217,266.2991 41.6317,266.2991 42.2977,265.5211 C42.7417,265.0771 42.8527,264.4111 42.7417,263.8561 C42.7417,262.5241 41.7427,261.5251 40.4107,261.5251 L39.9667,261.5251 L39.6337,261.6371 C38.7457,261.6371 37.8577,261.7471 37.0807,261.7471 C36.9697,261.1921 36.9697,260.6381 36.8587,259.9721 L36.8587,259.6391 C36.4147,257.0861 36.4147,254.4221 36.4147,251.7581 C36.4147,250.7591 36.3037,249.8701 36.3037,248.8711 C36.3037,247.7621 36.1927,246.6511 36.1927,245.5421 C36.1927,244.3201 36.1927,243.2111 36.0817,241.9891 L35.7487,237.8831 C35.7487,237.5501 35.8597,237.1051 35.8597,236.6611 C35.8597,235.7731 35.8597,234.8861 35.7487,233.9971 L35.7487,233.6641 L36.0817,232.0001 C36.1927,231.1111 36.4147,230.3351 36.5257,229.5571 L37.7467,229.5571 C39.4117,229.4461 41.1877,229.4461 42.8527,229.3361 C44.1847,229.2241 45.6277,229.1131 46.9597,229.0031 C48.1807,228.8911 49.5127,228.7801 50.7337,228.7801 C52.8427,228.6701 55.0627,228.6701 57.2827,228.6701 C58.3927,228.6701 59.6137,228.6701 60.8347,228.5581 C60.7237,230.3351 60.6127,232.2221 60.3907,233.9971 C60.2797,235.7731 60.2797,237.5501 60.1687,239.3251 C60.0577,241.1011 60.0577,242.8781 59.9467,244.6531 L59.9467,244.8761 C59.9467,245.4311 59.8357,246.3181 60.6127,247.0961 C61.1677,247.6501 61.8337,247.8721 62.7217,247.8721 L63.9427,247.8721 L64.2757,246.6511 C64.2757,246.4301 64.3867,246.2071 64.3867,245.9851 C64.6087,245.3191 64.8307,244.5431 64.8307,243.7651 C64.9417,242.7661 64.9417,241.8791 64.9417,240.8801 L64.9417,238.1041 C64.9417,237.1051 65.0527,236.2181 65.0527,235.3291 C65.1637,234.3301 65.1637,233.3311 65.1637,232.4431 L65.4967,227.8921 L65.8297,227.6711 L65.9407,227.3381 C65.9407,227.2261 65.9407,227.1151 66.0517,227.1151 C66.2737,226.6721 66.9397,225.5611 65.9407,224.5621 C65.2747,223.8961 64.4977,223.4521 63.7207,223.4521 L63.7207,223.4521 Z M141.3097,298.4881 L140.8657,298.4881 C138.9787,298.7111 136.8697,298.9321 134.6497,299.0441 L134.3167,299.0441 C134.2057,298.9321 134.2057,298.7111 134.0947,298.5991 C133.7617,297.3791 133.4287,296.1571 133.2067,294.9361 C132.4297,292.2721 131.7637,289.4971 130.8757,286.8341 C130.4317,284.9461 129.7657,283.0591 129.2107,281.2831 C128.5447,279.3961 127.9897,277.5101 127.4347,275.7331 L126.8797,273.7351 C125.9917,270.7381 125.1037,267.9641 124.3267,265.0771 L124.3267,264.9671 C124.3267,264.8551 124.3267,264.7441 124.2157,264.6341 L124.4377,264.6341 L125.1037,264.6341 L125.7697,264.6341 C125.8807,264.6341 126.1027,264.7441 126.3247,264.8551 C126.7687,264.9671 127.3237,265.1881 127.9897,265.1881 C128.6557,265.1881 129.3217,264.9671 129.8767,264.6341 L129.0997,263.1901 L129.8767,261.8581 C129.7657,261.7471 129.6547,261.7471 129.5437,261.6371 C129.2107,261.4141 128.7667,261.0811 128.1007,261.0811 C126.6577,260.8591 124.9927,260.7481 123.4387,260.6381 L123.3277,260.6381 L123.1057,260.6381 C122.8837,259.6391 122.6617,258.6401 122.3287,257.5291 C121.3297,254.9761 120.8857,252.3121 120.4417,249.4271 L120.2197,248.4281 C120.2197,247.7621 120.1087,247.2061 119.9977,246.6511 C119.6647,244.0981 119.3317,241.4341 118.3327,238.6591 C117.4447,236.4391 116.6677,233.8871 116.0017,231.4441 L115.8907,230.8891 C115.5577,230.0021 115.3357,229.0031 115.2247,228.0041 L116.2237,228.0041 C118.1107,227.8921 120.3307,227.7811 122.2177,226.2271 L121.3297,225.0071 L121.6627,223.3421 C120.4417,223.1191 119.2207,223.0091 117.9997,223.0091 L117.8887,223.0091 C117.2227,223.0091 116.5567,223.1191 115.7797,223.2301 C114.8917,223.3421 113.8927,223.3421 113.0047,223.3421 L112.0057,223.3421 C108.4537,222.8971 104.9017,222.8971 101.0167,223.2301 L95.0227,223.5631 L94.8007,223.5631 L94.6897,223.5631 C92.6917,223.8961 92.4697,225.2281 92.4697,225.8941 C92.4697,226.1161 92.4697,226.3391 92.5807,226.5601 L92.8027,227.8921 L94.1347,227.8921 L95.0227,227.8921 C95.3557,227.8921 95.6887,228.0041 96.1327,228.0041 C98.1307,227.8921 100.1287,227.7811 102.2377,227.7811 L102.5707,227.7811 C102.4597,228.2251 102.3487,228.5581 102.2377,229.0031 L102.1267,229.3361 C101.2387,232.5551 100.3507,235.8851 98.7967,238.7701 L95.7997,245.7641 C93.6907,251.3131 92.0257,255.8641 90.4717,259.9721 C90.3607,260.4151 90.2497,260.4151 90.0277,260.4151 L82.3687,260.4151 C80.8147,260.4151 79.8157,261.4141 79.8157,263.1901 L81.4807,263.1901 L81.1477,264.7441 C81.3697,264.7441 81.5917,264.8551 81.8137,264.8551 C82.4797,264.9671 83.1457,265.0771 83.8117,265.0771 L83.9227,265.0771 C85.4767,264.9671 87.0307,264.8551 88.4737,264.8551 L88.6957,264.8551 L88.8067,264.8551 C88.5847,265.6331 88.2517,266.4091 88.0297,267.1861 C87.6967,268.2971 87.3637,269.4061 87.0307,270.5161 C86.3647,273.0691 85.6987,275.6221 84.9217,278.0641 L84.3667,279.6181 C83.0347,283.5041 81.7027,287.1671 80.8147,291.1621 C80.2597,293.4931 79.5937,296.1571 78.2617,298.4881 L76.2637,298.4881 L76.0417,298.4881 C75.4867,298.5991 75.0427,298.5991 74.4877,298.5991 C73.9327,298.7111 73.3777,298.7111 72.8227,298.7111 L72.3787,298.7111 C72.0457,298.5991 71.7127,298.5991 71.3797,298.5991 C70.2697,298.5991 69.3817,299.0441 68.7157,299.8201 L69.8257,300.9311 L69.0487,302.2631 C69.8257,302.8171 70.7137,303.0391 71.8237,303.0391 C72.2677,303.0391 72.8227,302.9291 73.2667,302.9291 C73.7107,302.8171 74.0437,302.8171 74.3767,302.8171 L79.1497,302.8171 C80.8147,302.8171 82.4797,302.7061 84.1447,302.5961 C84.6997,302.5961 85.1437,302.5961 85.5877,302.7061 L87.0307,302.7061 C87.9187,302.7061 88.5847,302.7061 89.3617,302.4841 L88.8067,300.9311 L90.1387,299.9311 C89.3617,298.8211 88.2517,298.2661 86.8087,298.2661 L85.8097,298.2661 C85.5877,298.2661 85.4767,298.3781 85.1437,298.2661 C84.5887,298.2661 84.0337,298.2661 83.3677,298.3781 L83.1457,298.3781 C84.8107,291.6061 91.6927,269.8501 93.4687,265.0771 C94.0237,265.0771 94.6897,265.0771 95.3557,265.1881 C101.2387,265.6331 107.2327,265.6331 113.1157,265.1881 C115.0027,265.0771 116.8897,264.9671 118.8877,264.8551 L119.7757,264.8551 L119.8867,264.8551 C119.8867,264.9671 119.8867,265.0771 119.9977,265.1881 C120.8857,268.6301 121.8847,272.1811 122.8837,275.7331 C123.5497,277.6201 124.1047,279.5081 124.6597,281.3941 C125.1037,282.6151 125.5477,283.9471 125.8807,285.1691 L128.4337,293.9371 C128.7667,295.6021 129.2107,297.2671 129.6547,299.0441 C127.4347,299.1541 125.3257,299.1541 123.1057,299.2651 L122.5507,299.2651 L122.5507,300.9311 L120.9967,301.2641 C121.5517,303.4831 123.1057,303.7051 123.7717,303.7051 L124.4377,303.7051 C125.8807,303.7051 127.4347,303.5951 128.7667,303.4831 C130.5427,303.3721 132.2077,303.3721 133.8727,303.3721 C135.6487,303.3721 137.3137,303.2621 138.9787,303.2621 C139.8667,303.2621 140.6437,303.1501 141.4207,303.0391 C141.7537,302.9291 142.1977,302.8171 142.6417,302.8171 L142.5307,301.2641 L144.0847,300.9311 C143.8627,299.3771 142.8637,298.4881 141.3097,298.4881 L141.3097,298.4881 Z M106.3447,227.5591 L108.3427,227.5591 L108.8977,227.5591 C110.4517,227.5591 110.6737,227.5591 111.2287,229.6691 C111.5617,230.5561 111.6727,231.3341 112.0057,232.2221 C112.3387,233.5541 112.6717,234.8861 113.1157,236.2181 C114.6697,240.1021 115.5577,244.3201 116.2237,249.9811 C116.4457,251.9791 116.8897,253.9771 117.4447,255.8641 C117.6667,256.7531 117.8887,257.6401 118.1107,258.5281 C118.2217,259.1941 118.4437,259.9721 118.5547,260.7481 C117.8887,260.7481 117.2227,260.8591 116.5567,260.8591 C112.3387,261.0811 108.4537,261.3041 104.3467,261.3041 C100.9057,261.3041 97.6867,261.0811 94.8007,260.7481 L94.8007,260.6381 C96.4657,256.0871 98.3527,250.9801 100.4617,245.5421 C100.9057,244.4311 101.2387,243.3211 101.7937,242.3221 C103.7917,238.2161 105.0127,233.7751 106.2337,229.5571 L106.2337,229.3361 C106.3447,229.0031 106.3447,228.6701 106.3447,228.3371 L106.3447,227.5591 Z M209.9077,223.4521 L209.7967,223.4521 C209.1307,223.5631 208.4647,223.6751 207.7987,223.6751 C206.9107,223.7851 206.1337,223.8961 205.2457,223.8961 L205.1347,223.8961 C202.6927,224.1181 200.0287,224.1181 197.5867,224.1181 L197.4757,224.1181 C196.5877,224.2291 195.6997,224.2291 194.8117,224.2291 C193.9237,224.2291 193.0357,224.3411 192.1477,224.3411 C191.2597,224.4511 190.4827,224.4511 189.7057,224.5621 C188.9287,224.6741 188.2627,224.6741 187.4857,224.7841 L185.1547,224.7841 C183.4897,224.8951 181.8247,224.8951 180.1597,225.1171 C176.0527,225.5611 171.9457,225.5611 167.6167,225.5611 C165.8407,225.4501 164.1757,225.3401 162.5107,225.3401 C160.8457,225.2281 159.0697,225.1171 157.4047,225.1171 C155.0737,224.8951 152.5207,224.6741 150.0787,224.5621 C149.5237,224.5621 149.1907,224.6741 148.8577,224.7841 C148.7467,224.8951 148.6357,224.8951 148.5247,224.8951 L146.3047,225.4501 L147.6367,227.4481 C147.8587,227.7811 148.0807,228.1141 148.4137,228.3371 C148.4137,228.4471 148.5247,228.4471 148.5247,228.5581 L148.5247,231.1111 L148.5247,232.7761 C148.5247,233.8871 148.6357,235.1071 148.7467,236.3281 C148.7467,237.5501 148.8577,238.6591 148.9687,239.8811 L148.9687,240.1021 C149.0797,241.5461 149.1907,242.9881 149.3017,244.4311 C149.4127,244.8761 149.5237,245.3191 149.7457,245.7641 C150.1897,246.5401 151.1887,246.9841 152.2987,246.6511 C153.5197,246.3181 154.2967,245.0981 154.0747,243.6541 C153.9637,242.9881 153.8527,242.4331 153.8527,241.8791 L153.5197,240.2141 C153.5197,239.6581 153.5197,239.2151 153.4087,238.7701 C153.4087,238.2161 153.4087,237.7711 153.2977,237.2171 C153.2977,236.6611 153.2977,236.2181 153.1867,235.6621 L153.1867,234.3301 C153.1867,232.6651 153.1867,231.1111 153.2977,229.3361 C153.6307,229.3361 153.9637,229.3361 154.2967,229.4461 L155.8507,229.4461 L155.8507,229.5571 C157.2937,229.5571 158.7367,229.6691 160.0687,229.7791 C161.4007,229.7791 162.6217,229.8901 163.9537,229.8901 C165.0637,230.0021 166.5067,230.0021 167.8387,230.0021 C168.5047,229.8901 169.0597,229.8901 169.7257,229.8901 C171.1687,229.8901 172.6117,229.8901 174.1657,229.7791 L178.0507,229.7791 L178.0507,230.0021 C177.9397,230.4451 177.9397,230.8891 178.0507,231.3341 L177.8287,232.1101 C177.7177,232.3321 177.6067,232.6651 177.6067,233.1091 C177.3847,235.8851 177.3847,238.5491 177.7177,240.9901 C177.8287,242.8781 177.8287,244.8761 177.9397,246.8731 L177.9397,249.8701 L177.9397,251.4251 C177.8287,252.3121 177.8287,253.2001 177.8287,253.9771 C177.9397,255.9751 178.1617,257.8621 178.2727,259.7501 C178.3837,260.4151 178.3837,261.1921 178.4947,261.9701 C177.3847,261.9701 176.2747,261.8581 175.1647,261.7471 L174.9427,261.7471 C173.8327,261.6371 172.8337,261.5251 171.6127,261.5251 C170.8357,261.5251 170.0587,261.9701 169.6147,262.6361 C169.1707,263.1901 169.0597,263.9681 169.1707,264.7441 C169.3927,265.8541 170.8357,266.4091 171.7237,266.4091 L178.1617,266.4091 L178.6057,266.4091 L178.6057,267.0751 C178.4947,268.1851 178.3837,269.1841 178.3837,270.4051 C178.4947,273.5141 178.6057,276.8441 178.6057,280.1741 L178.6057,281.6161 C178.4947,282.1721 178.4947,282.6151 178.4947,283.1711 L178.4947,283.2811 C178.6057,283.8371 178.6057,284.3911 178.6057,285.0571 C178.7167,286.0561 178.8277,287.1671 178.8277,288.0551 L178.4947,298.4881 C177.4957,298.4881 176.3857,298.3781 175.2757,298.3781 C174.3877,298.3781 173.6107,298.4881 172.8337,298.7111 C171.9457,298.9321 171.6127,299.8201 171.3907,300.1531 L171.3907,300.2651 L170.1697,302.0401 L172.1677,302.7061 C172.2787,302.7061 172.2787,302.7061 172.3897,302.8171 C172.6117,302.9291 173.0557,303.0391 173.4997,303.1501 L174.7207,303.1501 L175.0537,303.1501 L177.2737,303.1501 C178.9387,303.2621 180.4927,303.2621 182.1577,303.2621 L184.9327,303.2621 L187.7077,303.2621 C188.8177,303.2621 189.8167,302.5961 190.0387,301.7071 C190.2607,300.8191 189.8167,300.1531 189.5947,299.7101 C189.3727,299.2651 189.0397,298.9321 188.3737,298.7111 L188.1517,298.5991 L187.8187,298.5991 C187.7077,298.5991 187.4857,298.5991 187.2637,298.4881 C186.2647,298.3781 185.0437,298.2661 183.9337,298.4881 L183.7117,298.5991 L183.2677,298.5991 C183.3787,298.0451 183.3787,297.3791 183.3787,296.7131 C183.3787,295.7141 183.3787,294.7151 183.4897,293.7161 L183.4897,293.6041 L183.4897,291.8281 L183.4897,288.2761 C183.4897,286.5011 183.3787,284.6131 183.2677,282.8381 C183.2677,282.5051 183.2677,282.1721 183.3787,281.7271 C183.3787,280.9501 183.4897,279.9511 183.3787,278.9521 C182.9347,275.1791 182.9347,271.5151 183.3787,267.7411 L183.3787,267.5191 C183.3787,267.1861 183.3787,266.7421 183.2677,266.2991 C183.9337,266.4091 184.5997,266.2991 185.2657,266.2991 L186.3757,266.2991 C186.7087,266.2991 187.8187,266.2991 188.4847,265.5211 C188.9287,265.0771 189.0397,264.4111 188.9287,263.8561 C188.9287,262.5241 187.9297,261.5251 186.5977,261.5251 L186.1537,261.5251 L185.8207,261.6371 C184.9327,261.6371 184.0447,261.7471 183.2677,261.7471 C183.1567,261.1921 183.1567,260.6381 183.0457,259.9721 L183.0457,259.6391 C182.6017,257.0861 182.6017,254.4221 182.6017,251.7581 C182.6017,250.7591 182.4907,249.8701 182.4907,248.8711 C182.4907,247.7621 182.3797,246.6511 182.3797,245.5421 C182.3797,244.3201 182.3797,243.2111 182.2687,241.9891 L181.9357,237.8831 C181.9357,237.5501 182.0467,237.1051 182.0467,236.6611 C182.0467,235.7731 182.0467,234.8861 181.9357,233.9971 L181.9357,233.6641 L182.2687,232.0001 C182.3797,231.1111 182.6017,230.3351 182.7127,229.5571 L183.9337,229.5571 C185.5987,229.4461 187.3747,229.4461 189.0397,229.3361 C190.3717,229.2241 191.8147,229.1131 193.1467,229.0031 C194.3677,228.8911 195.6997,228.7801 196.9207,228.7801 C199.0297,228.6701 201.2497,228.6701 203.4697,228.6701 C204.5797,228.6701 205.8007,228.6701 207.0217,228.5581 C206.9107,230.3351 206.7997,232.2221 206.5777,233.9971 C206.4667,235.7731 206.4667,237.5501 206.3557,239.3251 C206.2447,241.1011 206.2447,242.8781 206.1337,244.6531 L206.1337,244.8761 C206.1337,245.4311 206.0227,246.3181 206.7997,247.0961 C207.3547,247.6501 208.0207,247.8721 208.9087,247.8721 L210.1297,247.8721 L210.4627,246.6511 C210.4627,246.4301 210.5737,246.2071 210.5737,245.9851 C210.7957,245.3191 211.0177,244.5431 211.0177,243.7651 C211.1287,242.7661 211.1287,241.8791 211.1287,240.8801 L211.1287,238.1041 C211.1287,237.1051 211.2397,236.2181 211.2397,235.3291 C211.3507,234.3301 211.3507,233.3311 211.3507,232.4431 L211.6837,227.8921 L212.0167,227.6711 L212.1277,227.3381 C212.1277,227.2261 212.1277,227.1151 212.2387,227.1151 C212.4607,226.6721 213.1267,225.5611 212.1277,224.5621 C211.4617,223.8961 210.6847,223.4521 209.9077,223.4521 L209.9077,223.4521 Z M278.5057,223.4521 L278.3947,223.4521 C277.7287,223.5631 277.0627,223.6751 276.3967,223.6751 C275.5087,223.7851 274.7317,223.8961 273.8437,223.8961 L273.7327,223.8961 C271.2897,224.1181 268.6267,224.1181 266.1847,224.1181 L266.0737,224.1181 C265.1857,224.2291 264.2977,224.2291 263.4087,224.2291 C262.5217,224.2291 261.6337,224.3411 260.7447,224.3411 C259.8577,224.4511 259.0797,224.4511 258.3037,224.5621 C257.5267,224.6741 256.8607,224.6741 256.0837,224.7841 L253.7527,224.7841 C252.0877,224.8951 250.4227,224.8951 248.7577,225.1171 C244.6507,225.5611 240.5437,225.5611 236.2147,225.5611 C234.4387,225.4501 232.7737,225.3401 231.1087,225.3401 C229.4437,225.2281 227.6677,225.1171 226.0027,225.1171 C223.6717,224.8951 221.1187,224.6741 218.6767,224.5621 C218.1217,224.5621 217.7887,224.6741 217.4557,224.7841 C217.3447,224.8951 217.2337,224.8951 217.1227,224.8951 L214.9027,225.4501 L216.2347,227.4481 C216.4567,227.7811 216.6787,228.1141 217.0117,228.3371 C217.0117,228.4471 217.1227,228.4471 217.1227,228.5581 L217.1227,231.1111 L217.1227,232.7761 C217.1227,233.8871 217.2337,235.1071 217.3447,236.3281 C217.3447,237.5501 217.4557,238.6591 217.5667,239.8811 L217.5667,240.1021 C217.6777,241.5461 217.7887,242.9881 217.8997,244.4311 C218.0107,244.8761 218.1217,245.3191 218.3437,245.7641 C218.7877,246.5401 219.7867,246.9841 220.8967,246.6511 C222.1177,246.3181 222.8947,245.0981 222.6727,243.6541 C222.5617,242.9881 222.4507,242.4331 222.4507,241.8791 L222.1177,240.2141 C222.1177,239.6581 222.1177,239.2151 222.0067,238.7701 C222.0067,238.2161 222.0067,237.7711 221.8957,237.2171 C221.8957,236.6611 221.8957,236.2181 221.7847,235.6621 L221.7847,234.3301 C221.7847,232.6651 221.7847,231.1111 221.8957,229.3361 C222.2287,229.3361 222.5617,229.3361 222.8947,229.4461 L224.4487,229.4461 L224.4487,229.5571 C225.8917,229.5571 227.3347,229.6691 228.6657,229.7791 C229.9977,229.7791 231.2197,229.8901 232.5517,229.8901 C233.6607,230.0021 235.1047,230.0021 236.4367,230.0021 C237.1027,229.8901 237.6577,229.8901 238.3237,229.8901 C239.7667,229.8901 241.2097,229.8901 242.7637,229.7791 L246.6487,229.7791 L246.6487,230.0021 C246.5367,230.4451 246.5367,230.8891 246.6487,231.3341 L246.4267,232.1101 C246.3157,232.3321 246.2037,232.6651 246.2037,233.1091 C245.9827,235.8851 245.9827,238.5491 246.3157,240.9901 C246.4267,242.8781 246.4267,244.8761 246.5367,246.8731 L246.5367,249.8701 L246.5367,251.4251 C246.4267,252.3121 246.4267,253.2001 246.4267,253.9771 C246.5367,255.9751 246.7597,257.8621 246.8697,259.7501 C246.9817,260.4151 246.9817,261.1921 247.0927,261.9701 C245.9827,261.9701 244.8717,261.8581 243.7627,261.7471 L243.5397,261.7471 C242.4307,261.6371 241.4317,261.5251 240.2107,261.5251 C239.4337,261.5251 238.6567,261.9701 238.2127,262.6361 C237.7687,263.1901 237.6577,263.9681 237.7687,264.7441 C237.9907,265.8541 239.4337,266.4091 240.3217,266.4091 L246.7597,266.4091 L247.2027,266.4091 L247.2027,267.0751 C247.0927,268.1851 246.9817,269.1841 246.9817,270.4051 C247.0927,273.5141 247.2027,276.8441 247.2027,280.1741 L247.2027,281.6161 C247.0927,282.1721 247.0927,282.6151 247.0927,283.1711 L247.0927,283.2811 C247.2027,283.8371 247.2027,284.3911 247.2027,285.0571 C247.3147,286.0561 247.4257,287.1671 247.4257,288.0551 L247.0927,298.4881 C246.0937,298.4881 244.9837,298.3781 243.8727,298.3781 C242.9857,298.3781 242.2087,298.4881 241.4317,298.7111 C240.5437,298.9321 240.2107,299.8201 239.9887,300.1531 L239.9887,300.2651 L238.7677,302.0401 L240.7657,302.7061 C240.8767,302.7061 240.8767,302.7061 240.9877,302.8171 C241.2097,302.9291 241.6537,303.0391 242.0977,303.1501 L243.3187,303.1501 L243.6517,303.1501 L245.8707,303.1501 C247.5357,303.2621 249.0907,303.2621 250.7557,303.2621 L253.5307,303.2621 L256.3057,303.2621 C257.4147,303.2621 258.4137,302.5961 258.6367,301.7071 C258.8587,300.8191 258.4137,300.1531 258.1927,299.7101 C257.9707,299.2651 257.6377,298.9321 256.9717,298.7111 L256.7497,298.5991 L256.4157,298.5991 C256.3057,298.5991 256.0837,298.5991 255.8617,298.4881 C254.8627,298.3781 253.6417,298.2661 252.5317,298.4881 L252.3097,298.5991 L251.8657,298.5991 C251.9767,298.0451 251.9767,297.3791 251.9767,296.7131 C251.9767,295.7141 251.9767,294.7151 252.0877,293.7161 L252.0877,293.6041 L252.0877,291.8281 L252.0877,288.2761 C252.0877,286.5011 251.9767,284.6131 251.8657,282.8381 C251.8657,282.5051 251.8657,282.1721 251.9767,281.7271 C251.9767,280.9501 252.0877,279.9511 251.9767,278.9521 C251.5327,275.1791 251.5327,271.5151 251.9767,267.7411 L251.9767,267.5191 C251.9767,267.1861 251.9767,266.7421 251.8657,266.2991 C252.5317,266.4091 253.1977,266.2991 253.8637,266.2991 L254.9737,266.2991 C255.3067,266.2991 256.4157,266.2991 257.0817,265.5211 C257.5267,265.0771 257.6377,264.4111 257.5267,263.8561 C257.5267,262.5241 256.5277,261.5251 255.1957,261.5251 L254.7517,261.5251 L254.4187,261.6371 C253.5307,261.6371 252.6427,261.7471 251.8657,261.7471 C251.7547,261.1921 251.7547,260.6381 251.6437,259.9721 L251.6437,259.6391 C251.1997,257.0861 251.1997,254.4221 251.1997,251.7581 C251.1997,250.7591 251.0887,249.8701 251.0887,248.8711 C251.0887,247.7621 250.9777,246.6511 250.9777,245.5421 C250.9777,244.3201 250.9777,243.2111 250.8667,241.9891 L250.5327,237.8831 C250.5327,237.5501 250.6447,237.1051 250.6447,236.6611 C250.6447,235.7731 250.6447,234.8861 250.5327,233.9971 L250.5327,233.6641 L250.8667,232.0001 C250.9777,231.1111 251.1997,230.3351 251.3107,229.5571 L252.5317,229.5571 C254.1967,229.4461 255.9727,229.4461 257.6377,229.3361 C258.9697,229.2241 260.4117,229.1131 261.7437,229.0031 C262.9657,228.8911 264.2977,228.7801 265.5187,228.7801 C267.6277,228.6701 269.8477,228.6701 272.0677,228.6701 C273.1777,228.6701 274.3987,228.6701 275.6187,228.5581 C275.5087,230.3351 275.3977,232.2221 275.1757,233.9971 C275.0647,235.7731 275.0647,237.5501 274.9527,239.3251 C274.8427,241.1011 274.8427,242.8781 274.7317,244.6531 L274.7317,244.8761 C274.7317,245.4311 274.6197,246.3181 275.3977,247.0961 C275.9517,247.6501 276.6177,247.8721 277.5067,247.8721 L278.7277,247.8721 L279.0607,246.6511 C279.0607,246.4301 279.1717,246.2071 279.1717,245.9851 C279.3937,245.3191 279.6157,244.5431 279.6157,243.7651 C279.7267,242.7661 279.7267,241.8791 279.7267,240.8801 L279.7267,238.1041 C279.7267,237.1051 279.8377,236.2181 279.8377,235.3291 C279.9487,234.3301 279.9487,233.3311 279.9487,232.4431 L280.2817,227.8921 L280.6147,227.6711 L280.7257,227.3381 C280.7257,227.2261 280.7257,227.1151 280.8367,227.1151 C281.0587,226.6721 281.7247,225.5611 280.7257,224.5621 C280.0597,223.8961 279.2827,223.4521 278.5057,223.4521 L278.5057,223.4521 Z M342.5527,259.6391 C341.5537,259.5271 340.5547,259.5271 339.5557,259.6391 C339.4447,259.1941 339.4447,258.6401 339.4447,258.1951 C339.4447,257.5291 339.3337,256.9741 339.3337,256.3081 L339.3337,251.9791 L339.3337,251.7581 C339.2227,251.2021 339.2227,250.6471 339.1117,249.9811 C338.9997,248.7611 338.9997,247.4291 338.6677,246.0971 C338.1127,243.9871 337.2247,241.8791 336.3367,239.9911 L336.2257,239.7691 C335.4487,238.4371 334.4497,236.9941 333.1167,235.2191 C332.5627,234.4411 331.7847,233.8871 331.1187,233.2211 C330.7857,232.8881 330.3427,232.5551 330.0097,232.2221 C329.3437,231.6671 328.7877,231.0011 328.1217,230.4451 C327.5677,229.8901 326.9017,229.3361 326.2357,228.6701 C324.9037,227.3381 323.3497,226.1161 321.6847,225.1171 C320.7967,224.4511 319.6867,223.7851 318.3547,223.2301 C316.8007,222.7861 315.1357,222.3431 313.3597,221.8981 L313.2477,221.8981 C312.2497,221.7871 311.1397,221.7871 310.0297,221.7871 C309.2527,221.7871 308.4757,222.2311 308.1427,222.5641 L307.9207,222.7861 L307.8097,223.1191 C307.6987,223.2301 307.5877,223.3421 307.0327,223.5631 C306.6997,223.6751 306.4777,223.7851 306.2557,223.8961 L305.9227,224.1181 C305.8117,224.2291 305.5897,224.3411 305.3667,224.4511 C305.0337,224.6741 304.5907,224.8951 304.2577,225.2281 C302.2597,227.0051 300.7047,228.6701 299.2627,230.2231 C297.8197,231.6671 296.7097,233.6641 295.9327,235.9951 C295.5997,236.9941 295.1557,238.1041 294.7117,239.2151 C294.0457,240.8801 293.3797,242.6551 292.8247,244.4311 C292.0477,247.2061 291.4917,249.9811 290.9377,252.7571 L290.7157,253.5331 C290.2717,256.0871 290.1597,258.6401 290.0497,261.0811 L290.0497,261.4141 L289.7167,261.4141 L289.6057,261.5251 L286.1637,261.5251 L285.9427,261.5251 L285.6097,261.6371 C283.7227,261.8581 283.4997,263.3021 283.4997,263.9681 L283.4997,264.1891 C283.7227,265.7431 284.9437,266.5201 286.6087,266.2991 L286.7197,266.2991 C287.0527,266.1871 287.3857,266.0761 287.6077,266.0761 L287.8287,266.0761 C288.3847,266.0761 288.9397,265.9661 289.6057,265.9661 L289.8267,265.9661 L289.8267,267.0751 C289.7167,269.1841 289.7167,271.2941 289.7167,273.2921 C289.7167,275.2891 290.1597,277.1771 290.4927,279.0631 L290.7157,279.9511 C291.4917,283.2811 292.7137,286.3901 294.1567,289.1641 C295.3777,291.1621 296.5987,293.0501 297.8197,294.6031 C298.7067,295.9351 300.0387,297.7121 301.7037,299.0441 C303.5917,300.5981 305.9227,301.8181 308.8087,302.7061 C309.1417,302.8171 309.4747,302.9291 309.8077,303.1501 C310.4737,303.3721 311.2497,303.7051 312.1387,303.8161 C312.8047,303.9281 313.4707,303.9281 314.1367,303.9281 C315.9117,303.9281 317.6887,303.7051 319.6867,303.0391 C321.0187,302.4841 322.4617,301.9301 323.7937,301.3751 C325.0147,300.8191 326.3467,300.2651 327.6787,299.8201 C330.8977,298.5991 332.5627,296.0471 333.6727,293.7161 C334.3387,292.2721 334.8937,290.7191 335.3377,289.0541 C335.4487,288.4981 335.6707,287.9431 335.7817,287.3891 C336.3367,285.7231 336.8917,284.0581 337.2247,282.2821 C337.6687,279.1751 338.1127,275.9551 338.5567,272.9591 L338.8897,270.7381 C339.1117,269.1841 339.3337,267.8521 339.4447,266.4091 L339.5557,266.0761 L339.5557,264.3011 C340.6647,264.1891 341.7757,264.0781 342.8857,263.8561 C343.7737,263.7451 344.2177,263.0791 344.3277,262.8571 L345.5497,261.7471 L344.3277,260.5261 C344.1067,260.3051 343.5517,259.7501 342.5527,259.6391 L342.5527,259.6391 Z M322.5727,296.8231 C321.6847,297.2671 320.7967,297.7121 320.0197,297.9331 C318.3547,298.4881 316.4677,298.9321 314.3587,299.2651 C313.3597,299.3771 312.4717,299.2651 311.4727,298.7111 C311.0287,298.4881 310.4737,298.3781 309.9187,298.2661 C309.5857,298.1551 309.2527,298.0451 309.0307,297.9331 L308.9197,297.9331 C306.9217,297.2671 305.2567,296.2681 304.0347,294.8251 C302.5927,293.3831 301.2607,291.6061 299.9287,289.4971 C298.9297,287.9431 298.1527,286.2781 297.2647,284.5031 C297.0427,283.9471 296.7097,283.2811 296.4877,282.8381 C296.2657,282.3931 296.1547,281.8391 296.0437,281.1731 C295.9327,280.7281 295.8217,280.2841 295.7107,279.8411 C295.4887,279.0631 295.2667,278.3971 295.1557,277.8431 L295.1557,277.7311 C294.8227,276.2881 294.6007,274.8461 294.4897,273.5141 C294.4897,272.8481 294.4897,272.1811 294.6007,271.5151 C294.6007,270.7381 294.7117,269.9621 294.7117,269.1841 C294.7117,267.9641 294.6007,266.9651 294.4897,265.8541 L298.0407,265.8541 L298.3747,265.8541 C298.7067,265.6331 299.0397,265.5211 299.1517,265.3001 L299.3727,265.3001 L301.8157,264.4111 L299.9287,262.5241 C299.8177,262.5241 299.8177,262.4131 299.7057,262.4131 C299.3727,261.9701 298.9297,261.5251 298.3747,261.3041 L298.0407,261.3041 L294.6007,261.3041 L294.6007,260.3051 L294.7117,260.1931 C295.1557,256.4201 295.8217,252.7571 296.4877,249.2041 C296.7097,247.8721 297.0427,246.4301 297.4867,245.0981 C297.5977,244.4311 297.9307,243.8771 298.2637,243.2111 C298.4857,242.7661 298.5967,242.3221 298.8187,241.8791 C299.0397,241.2131 299.2627,240.5471 299.4847,239.8811 C299.8177,238.7701 300.1507,237.7711 300.5947,236.8841 C301.2607,235.5521 301.9267,234.4411 302.5927,233.6641 C303.7017,232.2221 305.1457,230.7781 306.8107,229.3361 C307.5877,228.5581 308.6977,228.0041 309.6967,227.5591 L310.1407,227.3381 C310.4737,227.2261 310.8067,227.0051 311.0287,227.0051 L311.1397,227.1151 L311.4727,227.2261 L311.9157,227.2261 C312.6937,227.2261 313.1377,227.1151 313.4707,226.8931 L313.5807,226.8931 C314.0257,227.0051 314.3587,227.1151 314.6917,227.2261 C315.4687,227.3381 316.2447,227.5591 316.8007,227.7811 C317.9097,228.2251 318.6877,228.7801 319.3537,229.2241 C320.9077,230.2231 322.5727,231.3341 323.9047,232.6651 C326.0137,234.5531 328.3447,236.8841 330.4527,239.3251 C332.1177,241.3231 333.2287,243.5441 333.6727,245.6521 C334.1167,247.5391 334.3387,249.6481 334.4497,252.6451 C334.6717,254.4221 334.6717,256.0871 334.5607,257.9731 L334.5607,259.7501 L334.5607,259.9721 L334.4497,259.9721 L331.1187,260.3051 L330.7857,260.3051 L330.4527,260.5261 C330.1197,260.6381 329.5657,260.8591 329.2327,261.1921 L329.0107,261.4141 L328.8997,261.6371 C328.4547,262.5241 328.8997,263.5231 329.1207,263.9681 L329.4537,264.5221 L330.2317,264.7441 C330.5647,264.9671 331.2307,265.1881 331.8967,264.9671 C332.8957,264.9671 333.7827,264.8551 334.7827,264.7441 C334.5607,266.6321 334.2277,268.5181 334.0057,270.4051 C333.8947,270.9611 333.7827,271.5151 333.7827,272.0701 C333.6727,272.6261 333.5617,273.1811 333.5617,273.7351 C333.3397,274.9561 333.1167,276.1781 333.0067,277.3981 C332.6737,279.1751 332.4507,281.0611 332.1177,282.7261 L332.0077,282.9481 C331.2307,286.3901 330.4527,289.9411 328.6777,292.9381 C327.9007,294.2701 326.6797,295.2691 325.1247,295.8241 C324.2377,296.1571 323.4607,296.4901 322.5727,296.8231 L322.5727,296.8231 Z M406.8217,259.6391 C405.8227,259.5271 404.8237,259.5271 403.8247,259.6391 C403.7137,259.1941 403.7137,258.6401 403.7137,258.1951 C403.7137,257.5291 403.6027,256.9741 403.6027,256.3081 L403.6027,251.9791 L403.6027,251.7581 C403.4917,251.2021 403.4917,250.6471 403.3807,249.9811 C403.2697,248.7611 403.2697,247.4291 402.9367,246.0971 C402.3817,243.9871 401.4927,241.8791 400.6057,239.9911 L400.4937,239.7691 C399.7177,238.4371 398.7187,236.9941 397.3867,235.2191 C396.8307,234.4411 396.0547,233.8871 395.3887,233.2211 C395.0557,232.8881 394.6117,232.5551 394.2787,232.2221 C393.6127,231.6671 393.0577,231.0011 392.3917,230.4451 C391.8367,229.8901 391.1707,229.3361 390.5047,228.6701 C389.1727,227.3381 387.6177,226.1161 385.9527,225.1171 C385.0657,224.4511 383.9547,223.7851 382.6227,223.2301 C381.0697,222.7861 379.4047,222.3431 377.6287,221.8981 L377.5177,221.8981 C376.5187,221.7871 375.4077,221.7871 374.2987,221.7871 C373.5217,221.7871 372.7437,222.2311 372.4107,222.5641 L372.1897,222.7861 L372.0777,223.1191 C371.9677,223.2301 371.8567,223.3421 371.3017,223.5631 C370.9687,223.6751 370.7457,223.7851 370.5247,223.8961 L370.1917,224.1181 C370.0797,224.2291 369.8587,224.3411 369.6367,224.4511 C369.3037,224.6741 368.8597,224.8951 368.5267,225.2281 C366.5287,227.0051 364.9747,228.6701 363.5317,230.2231 C362.0887,231.6671 360.9787,233.6641 360.2007,235.9951 C359.8677,236.9941 359.4247,238.1041 358.9807,239.2151 C358.3147,240.8801 357.6487,242.6551 357.0937,244.4311 C356.3167,247.2061 355.7617,249.9811 355.2057,252.7571 L354.9847,253.5331 C354.5397,256.0871 354.4297,258.6401 354.3187,261.0811 L354.3187,261.4141 L353.9857,261.4141 L353.8747,261.5251 L350.4337,261.5251 L350.2117,261.5251 L349.8787,261.6371 C347.9917,261.8581 347.7697,263.3021 347.7697,263.9681 L347.7697,264.1891 C347.9917,265.7431 349.2127,266.5201 350.8777,266.2991 L350.9887,266.2991 C351.3217,266.1871 351.6547,266.0761 351.8767,266.0761 L352.0987,266.0761 C352.6537,266.0761 353.2087,265.9661 353.8747,265.9661 L354.0967,265.9661 L354.0967,267.0751 C353.9857,269.1841 353.9857,271.2941 353.9857,273.2921 C353.9857,275.2891 354.4297,277.1771 354.7627,279.0631 L354.9847,279.9511 C355.7617,283.2811 356.9827,286.3901 358.4257,289.1641 C359.6467,291.1621 360.8667,293.0501 362.0887,294.6031 C362.9767,295.9351 364.3087,297.7121 365.9737,299.0441 C367.8607,300.5981 370.1917,301.8181 373.0767,302.7061 C373.4097,302.8171 373.7427,302.9291 374.0757,303.1501 C374.7417,303.3721 375.5197,303.7051 376.4077,303.8161 C377.0737,303.9281 377.7397,303.9281 378.4057,303.9281 C380.1817,303.9281 381.9567,303.7051 383.9547,303.0391 C385.2867,302.4841 386.7307,301.9301 388.0627,301.3751 C389.2827,300.8191 390.6157,300.2651 391.9477,299.8201 C395.1657,298.5991 396.8307,296.0471 397.9417,293.7161 C398.6077,292.2721 399.1617,290.7191 399.6067,289.0541 C399.7177,288.4981 399.9397,287.9431 400.0507,287.3891 C400.6057,285.7231 401.1597,284.0581 401.4927,282.2821 C401.9377,279.1751 402.3817,275.9551 402.8247,272.9591 L403.1577,270.7381 C403.3807,269.1841 403.6027,267.8521 403.7137,266.4091 L403.8247,266.0761 L403.8247,264.3011 C404.9347,264.1891 406.0447,264.0781 407.1547,263.8561 C408.0427,263.7451 408.4867,263.0791 408.5977,262.8571 L409.8187,261.7471 L408.5977,260.5261 C408.3747,260.3051 407.8207,259.7501 406.8217,259.6391 L406.8217,259.6391 Z M386.8417,296.8231 C385.9527,297.2671 385.0657,297.7121 384.2877,297.9331 C382.6227,298.4881 380.7367,298.9321 378.6277,299.2651 C377.6287,299.3771 376.7407,299.2651 375.7417,298.7111 C375.2977,298.4881 374.7417,298.3781 374.1877,298.2661 C373.8547,298.1551 373.5217,298.0451 373.2997,297.9331 L373.1887,297.9331 C371.1907,297.2671 369.5257,296.2681 368.3047,294.8251 C366.8617,293.3831 365.5297,291.6061 364.1977,289.4971 C363.1987,287.9431 362.4217,286.2781 361.5327,284.5031 C361.3117,283.9471 360.9787,283.2811 360.7567,282.8381 C360.5337,282.3931 360.4237,281.8391 360.3127,281.1731 C360.2007,280.7281 360.0907,280.2841 359.9797,279.8411 C359.7577,279.0631 359.5347,278.3971 359.4247,277.8431 L359.4247,277.7311 C359.0917,276.2881 358.8687,274.8461 358.7587,273.5141 C358.7587,272.8481 358.7587,272.1811 358.8687,271.5151 C358.8687,270.7381 358.9807,269.9621 358.9807,269.1841 C358.9807,267.9641 358.8687,266.9651 358.7587,265.8541 L362.3107,265.8541 L362.6437,265.8541 C362.9767,265.6331 363.3097,265.5211 363.4207,265.3001 L363.6427,265.3001 L366.0847,264.4111 L364.1977,262.5241 C364.0867,262.5241 364.0867,262.4131 363.9757,262.4131 C363.6427,261.9701 363.1987,261.5251 362.6437,261.3041 L362.3107,261.3041 L358.8687,261.3041 L358.8687,260.3051 L358.9807,260.1931 C359.4247,256.4201 360.0907,252.7571 360.7567,249.2041 C360.9787,247.8721 361.3117,246.4301 361.7557,245.0981 C361.8667,244.4311 362.1997,243.8771 362.5327,243.2111 C362.7547,242.7661 362.8657,242.3221 363.0877,241.8791 C363.3097,241.2131 363.5317,240.5471 363.7537,239.8811 C364.0867,238.7701 364.4197,237.7711 364.8637,236.8841 C365.5297,235.5521 366.1957,234.4411 366.8617,233.6641 C367.9717,232.2221 369.4137,230.7781 371.0787,229.3361 C371.8567,228.5581 372.9667,228.0041 373.9657,227.5591 L374.4087,227.3381 C374.7417,227.2261 375.0747,227.0051 375.2977,227.0051 L375.4077,227.1151 L375.7417,227.2261 L376.1857,227.2261 C376.9627,227.2261 377.4067,227.1151 377.7397,226.8931 L377.8507,226.8931 C378.2947,227.0051 378.6277,227.1151 378.9607,227.2261 C379.7377,227.3381 380.5147,227.5591 381.0697,227.7811 C382.1797,228.2251 382.9557,228.7801 383.6217,229.2241 C385.1767,230.2231 386.8417,231.3341 388.1737,232.6651 C390.2827,234.5531 392.6137,236.8841 394.7227,239.3251 C396.3877,241.3231 397.4967,243.5441 397.9417,245.6521 C398.3857,247.5391 398.6077,249.6481 398.7187,252.6451 C398.9407,254.4221 398.9407,256.0871 398.8287,257.9731 L398.8287,259.7501 L398.8287,259.9721 L398.7187,259.9721 L395.3887,260.3051 L395.0557,260.3051 L394.7227,260.5261 C394.3897,260.6381 393.8347,260.8591 393.5017,261.1921 L393.2797,261.4141 L393.1687,261.6371 C392.7247,262.5241 393.1687,263.5231 393.3907,263.9681 L393.7237,264.5221 L394.4997,264.7441 C394.8337,264.9671 395.4997,265.1881 396.1647,264.9671 C397.1637,264.9671 398.0527,264.8551 399.0517,264.7441 C398.8287,266.6321 398.4957,268.5181 398.2747,270.4051 C398.1627,270.9611 398.0527,271.5151 398.0527,272.0701 C397.9417,272.6261 397.8297,273.1811 397.8297,273.7351 C397.6087,274.9561 397.3867,276.1781 397.2757,277.3981 C396.9427,279.1751 396.7207,281.0611 396.3877,282.7261 L396.2767,282.9481 C395.4997,286.3901 394.7227,289.9411 392.9467,292.9381 C392.1697,294.2701 390.9487,295.2691 389.3947,295.8241 C388.5067,296.1571 387.7297,296.4901 386.8417,296.8231 L386.8417,296.8231 Z M453.2197,278.1761 C452.7757,276.8441 452.3307,275.5121 451.5547,274.0681 C450.9997,273.2921 450.4447,272.7361 449.7787,272.0701 C449.3347,271.6271 448.8907,271.2941 448.6687,270.8491 L448.3357,270.4051 C447.6697,269.5171 447.0037,268.4071 445.6717,267.5191 C444.8947,266.9651 444.1167,266.2991 443.3407,265.5211 C442.6747,264.9671 442.1187,264.4111 441.3427,263.8561 C440.3437,263.1901 439.3447,262.6361 438.4557,261.9701 C438.0127,261.7471 437.5687,261.5251 437.1247,261.1921 C437.5687,260.4151 438.0127,259.5271 438.4557,258.6401 C438.9007,257.6401 439.4547,256.6411 439.8997,255.6421 L440.0107,255.4211 C440.2327,254.8651 440.2327,254.4221 440.1207,254.0891 L440.1207,253.7561 L440.1207,251.3131 L437.7897,252.3121 C437.6797,252.3121 437.6797,252.3121 437.5687,252.4241 C437.1247,252.5341 436.4587,252.6451 435.9037,253.4231 C435.5707,254.0891 435.2377,254.7551 435.0157,255.3091 C434.9047,255.6421 434.7937,255.9751 434.5717,256.1971 L433.0177,259.3061 C432.9067,259.1941 432.7957,259.1941 432.5737,259.0841 C432.2407,258.9731 431.9077,258.7511 431.5747,258.6401 C431.2417,258.4181 430.7977,258.3061 430.4647,258.1951 C429.3547,257.7521 428.3557,257.3071 427.5777,256.7531 C427.0237,256.4201 426.4687,256.0871 425.9127,255.7541 C424.8037,254.9761 423.8047,254.4221 423.1387,253.4231 L422.4727,252.7571 C421.6957,251.8681 421.0297,251.0921 420.6967,250.2031 C419.9197,248.4281 419.8087,246.6511 420.1417,244.7641 C420.9187,240.6571 422.3617,237.1051 424.4707,233.9971 C425.2467,232.8881 426.4687,231.6671 428.0227,230.4451 C429.7987,229.2241 432.0187,227.8921 434.5717,227.4481 C434.9047,227.4481 435.3487,227.3381 435.7927,227.2261 C436.5697,227.1151 437.2357,226.8931 437.9017,226.8931 C439.2337,226.6721 440.4537,227.1151 442.1187,228.2251 C442.5637,228.4471 443.0077,228.7801 443.4507,229.0031 C444.7827,229.7791 445.8937,230.4451 446.5597,231.5561 C447.6697,233.1091 448.4467,234.3301 448.0027,235.7731 C447.8917,235.9951 447.8917,236.3281 447.7807,236.4391 L447.7807,236.6611 L447.6697,236.8841 L447.6697,237.1051 C447.6697,237.8831 447.5587,238.6591 447.4477,239.3251 C447.4477,239.9911 447.3367,240.6571 447.3367,241.3231 C447.1147,241.9891 447.0037,242.6551 447.2257,243.3211 C447.5587,244.0981 448.2247,244.6531 448.5577,244.8761 L448.8907,245.2091 L449.5567,245.2091 C450.5557,245.2091 451.3317,244.4311 451.6647,243.8771 L451.7767,243.6541 L451.7767,243.4321 C451.7767,243.2111 451.8877,242.9881 451.8877,242.8781 C452.1097,241.8791 452.3307,240.8801 452.3307,239.7691 C452.3307,237.3271 452.8867,234.9961 454.1077,232.2221 L454.1077,232.1101 C454.4407,231.1111 453.9957,230.2231 453.6627,229.4461 L453.5527,229.2241 L453.3297,229.1131 C452.7757,228.4471 451.8877,228.4471 451.5547,228.4471 C451.3317,228.4471 451.1107,228.4471 450.8887,228.5581 C450.5557,228.6701 450.3337,228.6701 450.1117,228.8911 C448.7797,226.8931 446.8927,225.8941 445.2277,224.8951 C445.0057,224.7841 444.7827,224.5621 444.5617,224.4511 L443.8957,224.1181 C442.4517,223.4521 441.0097,222.6761 439.4547,222.4531 C438.7887,222.3431 438.1227,222.2311 437.4567,222.2311 C435.1267,222.2311 432.9067,223.0091 430.7977,223.7851 C429.4657,224.3411 428.2437,225.1171 427.0237,225.7831 C426.6907,226.0061 426.3577,226.2271 426.0247,226.3391 C423.5817,227.6711 421.4737,229.7791 420.0307,232.3321 C418.9207,234.1081 418.1437,235.9951 417.4777,237.8831 L417.2557,238.2161 C416.1457,240.6571 415.8127,243.2111 415.5907,245.6521 L415.4797,246.4301 C415.1467,248.7611 415.7007,251.2021 417.3667,253.6441 C419.4757,256.7531 422.4727,259.3061 426.6907,261.4141 C428.0227,262.0801 429.4657,262.7461 431.3527,263.5231 C430.4647,264.9671 429.7987,266.2991 429.1327,267.6311 L429.1327,267.8521 C428.9097,268.7401 429.0217,269.4061 429.1327,269.9621 L429.7987,272.1811 L431.5747,270.9611 L431.6857,270.9611 C432.0187,270.8491 432.6847,270.6281 433.1287,269.9621 L433.2397,269.7391 C433.7947,268.8511 434.3497,267.8521 434.7937,266.8531 C435.0157,266.4091 435.2377,266.0761 435.3487,265.6331 C436.2367,266.0761 437.1247,266.6321 437.9017,267.1861 C438.2347,267.4081 438.6787,267.7411 439.0117,267.9641 C440.4537,268.9631 441.7857,269.8501 442.8967,271.0711 C443.5627,271.9601 444.2287,272.7361 445.0057,273.5141 L446.0047,274.5131 C446.1157,274.7341 446.3377,274.9561 446.5597,275.1791 C447.2257,276.0661 447.7807,276.7321 448.1137,277.6201 C448.2247,278.1761 448.4467,278.7301 448.5577,279.2851 C449.2237,281.5061 449.8897,283.5041 449.8897,285.8351 C449.8897,287.8321 449.5567,289.7201 448.6687,291.2731 C448.0027,292.7171 447.0037,294.0491 446.0047,295.1581 L446.0047,295.2691 C444.6727,297.0461 443.0077,298.0451 440.5657,298.3781 C436.2367,299.0441 432.9067,299.1541 429.4657,298.9321 C427.2447,298.8211 425.8027,298.1551 424.5807,296.9341 C423.2497,295.6021 421.9177,294.2701 421.3627,292.6051 C421.3627,292.1611 421.2517,291.6061 421.1407,291.1621 C421.0297,290.7191 421.0297,290.1631 420.9187,289.6081 C420.4747,287.7221 420.3637,286.2781 420.4747,284.8361 L420.4747,284.6131 C420.4747,284.2801 420.4747,283.2811 419.9197,282.5051 C419.6977,281.9491 419.5867,281.5061 419.6977,280.8401 C420.0307,279.7291 420.2527,278.7301 420.4747,277.6201 L420.4747,277.2871 C420.4747,276.5111 420.0307,275.9551 419.8087,275.6221 C419.8087,275.5121 419.6977,275.5121 419.6977,275.4001 L418.9207,274.2901 L417.6997,274.8461 L417.5887,274.9561 C417.1447,275.0671 416.4787,275.2891 416.1457,276.0661 L416.1457,276.1781 C415.3677,277.9531 414.5917,279.8411 414.0357,281.7271 C413.2597,284.6131 412.7037,287.5001 412.1497,290.3861 C411.9277,291.3851 412.5937,293.0501 413.7027,293.6041 L413.9257,293.7161 C414.1477,293.8261 414.3687,293.8261 414.7017,293.8261 C415.5907,293.8261 416.1457,293.2711 416.4787,292.7171 C417.1447,295.3811 418.4767,297.4891 420.4747,299.2651 C422.2497,300.9311 424.4707,302.5961 427.3567,303.0391 C428.6887,303.2621 430.1317,303.3721 431.4637,303.3721 L433.4617,303.3721 L435.6817,303.3721 L435.7927,303.3721 C436.3477,303.3721 436.7907,303.2621 437.3467,303.1501 C437.9017,303.1501 438.4557,303.0391 439.0117,303.0391 C442.6747,303.0391 445.6717,301.9301 448.0027,299.7101 C449.6677,298.1551 451.2217,296.3801 452.5537,294.2701 C453.8857,291.8281 454.6617,289.0541 454.6617,285.9451 C454.6617,283.9471 454.3287,281.6161 453.5527,279.1751 C453.4417,278.8421 453.3297,278.5091 453.2197,278.1761 L453.2197,278.1761 Z" id="Fill-7" sketch:type="MSShapeGroup"></path>
            <path d="M209.0991,104.5796 C206.9311,104.5796 204.6551,106.6396 204.3291,109.7826 L204.3291,110.5416 C204.3291,113.0346 205.6301,115.7446 208.2321,116.0696 L208.6651,116.0696 C210.9421,116.0696 212.4591,113.6846 212.8931,110.7586 L212.8931,109.8916 C212.8931,107.6146 211.7011,104.7966 209.4241,104.6876 C209.3161,104.5796 209.2071,104.5796 209.0991,104.5796 M397.0621,104.5796 C394.8931,104.5796 392.6181,106.6396 392.2931,109.7826 L392.2931,110.5416 C392.2931,113.0346 393.5931,115.7446 396.1941,116.0696 L396.6281,116.0696 C398.9041,116.0696 400.4221,113.6846 400.8551,110.7586 L400.8551,109.8916 C400.8551,107.6146 399.6641,104.7966 397.3871,104.6876 C397.2791,104.5796 397.1701,104.5796 397.0621,104.5796" id="Fill-9" sketch:type="MSShapeGroup"></path>
            <path d="M262.1055,153.3594 C259.6135,161.1644 257.1195,167.5594 254.9515,172.3294 C252.8925,177.0984 249.6395,183.6024 245.7385,188.3724 C243.7865,190.6484 241.9435,191.8404 240.3185,191.7324 L240.1015,191.7324 C236.9575,191.6244 236.0895,186.2044 236.0895,180.8924 L236.0895,179.9174 C236.0895,176.4484 236.5235,173.0884 237.0655,170.1614 C237.8245,166.1504 238.9095,162.2484 240.4265,158.2374 C243.4605,150.1074 248.3385,141.1094 255.2765,137.9664 C256.2515,137.5324 257.1195,137.3164 257.9865,137.3164 C260.4795,137.3164 262.8645,139.0504 265.1405,142.4104 C264.3815,145.7714 263.2975,149.4564 262.1055,153.3594 M52.3555,110.9754 C55.0645,116.0694 57.2325,121.4894 58.8585,126.3674 C61.5685,135.4734 61.6775,142.9524 57.2325,144.3614 C52.4635,145.7714 49.1035,144.2534 47.0435,141.1094 C45.0925,138.0744 44.1165,133.7384 44.1165,128.2104 C44.1165,122.6824 44.7675,116.9374 46.1765,110.9754 C46.7185,108.5904 47.3685,106.2054 48.1275,103.9294 C49.6455,106.0974 51.0545,108.4824 52.3555,110.9754 M418.5255,164.7414 C414.5135,175.1474 409.6355,185.7704 404.9745,191.5154 C402.4815,194.6594 400.0965,196.3934 398.0375,195.9604 C396.1945,195.5264 394.8935,193.5754 394.1345,190.1064 C393.4855,186.6374 393.1605,182.4104 393.2685,177.3154 C393.2685,171.7874 393.7015,165.6084 394.4595,159.4294 C395.4355,149.8904 397.0625,140.3514 398.3635,133.0884 C397.4965,132.4384 396.4115,132.0044 395.1105,131.6794 C394.7855,131.5704 394.3515,131.4624 394.0265,131.5704 C393.2685,131.5704 392.5095,131.7874 391.7505,132.2214 C390.8825,136.4484 389.9085,141.4354 388.8235,147.0714 C387.2155,155.9594 386.4035,163.7804 386.1245,170.0364 C385.8755,170.6374 385.6225,171.2484 385.3545,171.8954 C382.7525,177.9654 379.0675,186.4214 373.9725,193.4664 C368.8775,200.7284 364.1085,199.1034 362.8075,191.6244 C361.5065,183.9274 361.9405,175.2554 362.0485,169.1854 L362.3745,160.0804 C362.6995,151.0824 362.4825,142.6274 360.3145,137.7494 C359.1225,135.1484 357.3875,133.5224 354.7865,133.4134 C350.5585,133.4134 346.4395,136.9904 342.9705,141.6514 C337.6595,148.5894 333.7565,157.8034 332.8895,159.9714 L332.8895,152.2754 C332.8895,149.5654 332.7815,146.7464 332.6725,143.9284 C332.1305,133.6304 330.0715,123.9834 322.8095,123.4414 L322.0505,123.4414 C319.5565,123.4414 317.0635,124.5254 314.4625,126.8014 C309.3685,131.2454 305.3565,139.2674 303.0815,145.0124 C301.7795,148.0474 300.8045,150.5404 300.6955,151.5164 L300.2615,131.1374 C298.5275,129.7284 295.3845,130.9204 294.1915,132.6544 C294.7345,140.7844 294.9515,147.9394 295.0595,154.8774 C295.1225,158.5794 295.1375,162.2344 295.1275,165.8634 L292.9995,170.9204 C292.0235,173.1964 291.0475,175.3644 289.9635,177.6404 C285.9535,185.8794 281.1835,193.5754 277.1725,193.1414 C276.5225,193.0334 275.8725,192.4914 275.3305,191.5154 C274.7885,190.5404 274.2465,189.1304 273.8125,187.5054 C272.0785,181.1094 271.1025,170.4864 270.7775,159.9714 C270.4525,149.2394 270.8855,138.7254 272.1875,133.4134 C271.6445,133.0884 270.9945,132.9804 270.4525,132.9804 L270.0185,132.9804 C269.2595,133.0884 268.6095,133.1964 267.9595,133.5224 C267.7425,134.2804 267.4175,135.1484 266.9835,136.3404 C266.6585,137.5324 266.2245,138.7254 265.7915,140.1344 C262.3225,134.4974 257.4445,132.7634 252.3495,134.3894 C243.0015,137.0754 232.9135,150.2014 229.2515,168.0614 C225.5145,177.3504 221.1775,186.3814 217.0125,191.5154 C214.5195,194.6594 212.1345,196.3934 210.0745,195.9604 C208.2315,195.5264 206.9315,193.5754 206.1725,190.1064 C205.5225,186.6374 205.1965,182.4104 205.3055,177.3154 C205.3055,171.7874 205.7385,165.6084 206.4975,159.4294 C207.4735,149.8904 209.0995,140.3514 210.3995,133.0884 C209.5325,132.4384 208.4485,132.0044 207.1475,131.6794 C206.8225,131.5704 206.3895,131.4624 206.0635,131.5704 C205.3055,131.5704 204.5465,131.7874 203.7875,132.2214 C202.9205,136.4484 201.9445,141.4354 200.8605,147.0714 C199.6145,153.9584 198.8475,160.2034 198.4335,165.5794 C196.3675,171.1144 193.1785,179.4584 189.2625,187.3964 C183.5175,199.5374 176.3625,210.5934 170.8345,209.1844 C167.7995,208.3174 166.4985,203.8734 166.3905,197.3694 C166.1735,191.2984 166.6065,183.7114 167.7995,174.7134 C168.9915,165.7164 169.9675,156.6114 170.7265,147.6134 C172.0265,132.7634 172.3525,118.9964 168.8835,110.8664 C167.0405,106.5304 164.0055,103.8204 159.5615,103.4954 C152.7315,103.1704 145.7945,112.3844 139.8325,124.0914 C133.8705,135.4734 128.8845,149.3484 125.8495,159.2134 C124.1145,164.5244 123.0305,168.7524 122.5975,170.5944 C122.8135,169.1854 123.1395,166.2584 123.6815,161.9224 C124.2235,157.5874 124.7655,152.4924 125.1985,146.5294 C125.6325,140.3514 126.0655,133.3054 126.0655,126.0424 C126.1745,117.3704 125.9575,108.5904 124.7655,100.7854 C122.7055,86.3684 118.0445,75.2034 108.3975,75.0954 L108.1805,75.0954 C102.9775,75.0954 97.6655,79.6484 93.3295,86.0434 C88.8855,92.2224 85.4165,100.0264 83.4655,105.7724 C83.1405,102.6284 82.5985,99.8104 81.9475,97.2084 C79.0215,84.9594 73.4925,77.9134 64.8205,77.9134 L64.0625,77.9134 C61.0265,78.0224 57.9915,80.2984 55.2815,84.0924 C52.7885,87.4524 50.4035,92.0054 48.3445,97.1004 C42.2735,90.9214 35.4445,86.8024 29.0495,87.0194 C24.6055,87.1274 21.2445,89.0784 19.0765,91.7884 C17.0175,94.4984 15.9335,97.5334 15.9335,101.0024 L15.9335,101.6524 C16.0415,105.4464 17.2335,108.2654 19.5105,110.1084 C21.5695,111.7344 24.1715,112.1674 27.5315,111.1924 C27.2065,110.2164 26.8815,109.4574 26.7725,109.0244 C24.7135,109.3494 23.0875,108.6984 22.1115,107.5064 C19.5105,104.7964 19.7275,98.7264 21.8955,94.2814 C23.5215,91.3554 25.9055,89.0784 29.0495,88.9704 C34.7945,88.7534 41.1895,94.2814 46.7185,101.8694 C45.3095,105.8804 44.2255,110.1084 43.4665,114.3354 C41.1895,126.1514 41.1895,137.8584 45.4175,144.0364 C47.9105,147.8304 52.1385,149.4564 58.2085,147.6134 C66.1215,145.1204 67.6395,136.6654 65.1465,126.8014 C63.8455,121.2734 61.3525,115.5274 58.2085,110.2164 C55.8235,106.0974 53.0055,102.1944 49.8615,98.7264 L51.0545,96.1244 C54.6315,87.7774 59.4005,81.7074 64.1705,81.3824 C68.1815,81.2744 71.1075,84.9594 72.9505,91.1384 C76.7445,102.7364 77.5035,123.3324 76.7445,145.0124 C76.2025,163.1154 74.5765,181.8684 72.7335,197.0444 C73.3845,198.1284 74.5765,198.6704 76.2025,198.6704 C77.8285,198.6704 79.1295,198.4534 79.9965,198.0194 C80.3215,195.8514 80.5385,193.6834 80.7555,191.4074 C81.6225,182.4104 82.8145,171.1364 83.6825,158.1294 C84.7665,143.1694 85.1995,128.9694 84.5495,116.7204 C85.3085,112.3844 86.9345,106.4224 89.4275,100.5684 C93.8715,89.2954 100.8095,78.0224 107.3135,78.3474 C110.3485,78.4554 112.4075,82.2494 113.8165,88.6454 C115.0095,94.6074 115.7685,102.4114 115.9845,112.0594 C116.4185,131.2454 115.7685,151.4074 115.2265,169.0774 C114.9005,177.8574 114.7925,185.9874 114.6845,193.3584 C116.3105,194.9844 120.6465,195.0924 122.0555,192.3824 C123.2475,181.9764 126.4995,168.5354 130.8355,155.5274 C136.0385,139.9174 142.7595,124.7414 148.8295,116.3954 C152.1895,111.7344 155.2255,109.0244 157.8265,109.0244 C161.1875,109.1324 162.7045,111.9504 163.4635,116.6114 C164.6555,125.2834 162.3795,140.2424 160.3195,155.8524 C158.6935,168.7524 157.1765,182.0854 158.0435,192.5994 C158.9105,202.5724 161.8375,209.9434 168.7745,212.0034 C169.6425,212.2194 170.5095,212.3284 171.3765,212.3284 C173.4365,212.3284 175.3875,211.5694 177.2305,210.1604 C179.9395,208.1004 182.4335,205.2824 184.9265,201.7054 C187.4195,197.9114 189.8045,193.3584 191.9725,188.6974 C193.9235,184.2534 195.6575,180.0254 197.1755,175.9064 C197.4815,175.0734 197.7725,174.2864 198.0535,173.5234 C198.0465,174.0054 198.0425,174.4744 198.0425,174.9304 C198.0425,176.7734 198.0425,178.5074 198.1505,180.3504 C198.4765,185.4454 199.4515,189.5644 201.0775,192.8164 C202.8125,196.2854 205.5225,198.6704 209.3155,199.1034 C209.5325,199.2124 209.7495,199.2124 209.9665,199.2124 C212.1345,199.2124 214.8445,197.5864 217.7715,194.2244 C221.4475,190.1164 225.1685,183.7024 228.3995,176.5844 C228.3985,176.6864 228.3935,176.7794 228.3935,176.8814 L228.3935,178.9414 C228.5015,182.9524 229.4775,186.3124 231.1035,189.1304 C232.9475,192.2744 235.7645,194.3344 239.9935,194.6594 C244.4365,194.7674 249.0975,189.5644 253.0015,182.7354 C256.9025,176.1234 260.0465,167.8844 262.1055,162.1394 C263.2975,158.9964 263.8395,156.5034 264.1655,155.3104 C263.8395,160.5134 263.6235,167.3424 264.0565,173.8464 C264.5985,185.9874 267.3085,197.5864 274.3545,198.1284 C274.5715,198.2364 274.7885,198.2364 275.0045,198.2364 C281.0755,198.2364 287.0375,189.3474 291.6985,179.7004 C292.9335,177.2304 294.0665,174.7644 295.0715,172.4334 C295.0645,172.8664 295.0675,173.3074 295.0595,173.7384 C294.9515,179.9174 294.8415,186.5294 294.9515,193.6834 C296.5775,194.8764 299.1775,195.8514 300.9125,194.5504 C300.8045,188.8054 300.8045,183.2774 300.8045,177.8574 C300.8045,167.0174 300.0445,161.0554 303.4065,151.8414 C306.7655,142.6274 311.2095,135.5814 315.0035,132.0044 C318.7975,128.4274 321.9415,128.7524 323.3505,132.3294 C324.1095,134.1724 324.7595,136.5574 325.3015,139.7004 C327.4705,150.9744 328.1215,169.9444 327.6875,186.8544 C329.4215,187.3964 331.3725,188.0474 332.9985,186.7464 L332.9985,168.7524 C333.1065,167.5594 333.9735,164.9584 335.5995,160.9474 C338.7435,153.0344 343.0795,146.6384 346.5475,143.4944 C349.9085,140.1344 353.4855,139.8094 354.2445,144.9034 C354.6775,147.3974 354.8945,150.6494 354.7865,154.5514 C354.6775,158.7794 354.4605,163.5484 354.3525,168.4264 C354.2445,175.9064 354.4605,183.7114 356.1955,189.6724 C357.9295,195.4184 360.9645,199.7544 366.2765,200.7284 C366.7095,200.8384 367.1435,200.8384 367.5775,200.8384 C373.2135,200.8384 379.0675,191.7324 384.1625,181.0014 C384.8055,179.5864 385.4215,178.1784 386.0155,176.7934 C386.0235,177.9704 386.0435,179.1404 386.1145,180.3504 C386.4395,185.4454 387.4145,189.5644 389.0405,192.8164 C390.7755,196.2854 393.4855,198.6704 397.2795,199.1034 C397.4965,199.2124 397.7125,199.2124 397.9295,199.2124 C400.0965,199.2124 402.8065,197.5864 405.7345,194.2244 C411.2615,188.0474 416.8985,176.6654 420.8005,165.5004 C419.8255,165.1744 419.0665,164.8494 418.5255,164.7414" id="Fill-11" sketch:type="MSShapeGroup"></path>
        </g>
    </g>
</svg>