<?xml version="1.0" encoding="UTF-8" standalone="no"?>
<svg width="100px" height="67px" viewBox="0 0 100 67" version="1.1" xmlns="http://www.w3.org/2000/svg" xmlns:xlink="http://www.w3.org/1999/xlink" xmlns:sketch="http://www.bohemiancoding.com/sketch/ns">
    <!-- Generator: Sketch 3.3.2 (12043) - http://www.bohemiancoding.com/sketch -->
    <title>Miami Tattoos Logo Vector</title>
    <desc>Created with Sketch.</desc>
    <defs></defs>
    <g id="Page-1" stroke="none" stroke-width="1" fill="none" fill-rule="evenodd" sketch:type="MSPage">
        <g id="option-copy" sketch:type="MSArtboardGroup" transform="translate(-190.000000, -76.000000)" fill="#FFFFFF">
            <g id="Miami-Tattoos-Logo-Vector" sketch:type="MSLayerGroup" transform="translate(190.000000, 76.000000)">
                <path d="M50.2028352,18.9908132 C51.0098681,18.6213626 51.2494286,16.9358681 50.8023956,15.4519121 C50.2586593,13.6415824 49.2841538,11.1846593 48.6577802,11.6582857 C48.4782198,11.7936703 49.0401978,12.156967 49.2826154,13.5338901 C49.4804176,14.6552088 48.8423956,14.5648791 48.7973407,14.0360879 C48.5362418,12.4418022 48.0698681,11.8598242 47.3854725,10.9380659 C46.8373407,10.204 45.5812967,9.29301099 45.405033,9.49301099 C45.2287692,9.69279121 45.6428352,10.0818022 45.7531648,10.5042198 C45.9149231,11.1182857 45.710967,11.8670769 45.0973407,10.4532308 C44.6487692,9.27652747 43.7654725,8.59498901 42.6500879,8.40465934 C42.3575604,8.37257143 42.370967,8.65015385 42.6259121,8.8807033 C42.6259121,8.8807033 43.1852527,9.3450989 43.2632747,9.82004396 C43.3988791,10.6591648 43.099978,11.0360879 42.8758022,10.6870769 C41.956022,9.43696703 40.4142637,9.17894505 37.9485495,9.39828571 C37.4311868,9.44421978 36.5692088,9.58246154 36.6369011,9.75015385 C36.7817363,10.1066374 40.1494286,9.77674725 39.8564615,10.2861978 C39.1685495,10.2747692 37.9678901,10.4352088 36.8892088,10.7967473 C36.0494286,11.0897143 35.3518462,11.664 34.7342637,12.3165275 C34.2641538,12.8787253 34.1575604,13.0991648 34.7744835,12.871033 C37.3861319,11.0167473 40.4384396,10.8607033 43.9331648,12.462022 C46.8615165,13.8635604 48.9485495,16.0242198 50.2028352,18.9908132" id="Fill-1" sketch:type="MSShapeGroup"></path>
                <path d="M51.1914066,12.3188571 C50.4747033,12.3447912 49.6472308,11.1617143 49.3830549,9.87094505 C49.0608571,8.29753846 48.7892088,6.07402198 49.4197582,6.19578022 C49.5988791,6.23006593 49.3432747,6.71621978 49.708989,7.84874725 C50.0078901,8.77028571 50.4241538,8.46171429 50.2507473,8.04369231 C49.8120659,6.74083516 49.9149231,6.12413187 50.0410769,5.17094505 C50.1417363,4.40918681 50.6736044,3.24654945 50.8771209,3.3316044 C51.0801978,3.41578022 50.9395385,3.86523077 51.0254725,4.22589011 C51.1538242,4.75094505 51.588989,5.24061538 51.4720659,3.94061538 C51.3294286,2.88215385 51.6894286,2.0338022 52.4041538,1.46918681 C52.599978,1.3338022 52.6993187,1.54786813 52.6074505,1.81951648 C52.6074505,1.81951648 52.3911868,2.38171429 52.5228352,2.76984615 C52.7564615,3.4549011 53.1147033,3.62742857 53.136022,3.27973626 C53.2993187,1.98742857 54.2922857,1.21006593 56.125033,0.444791209 C56.5111868,0.283252747 57.1749231,0.0634725275 57.1929451,0.21556044 C57.2300879,0.539076923 54.7131648,1.56193407 55.1186593,1.836 C55.6026154,1.56764835 56.5184396,1.23556044 57.4228352,1.10083516 C58.134044,1.00457143 58.8529451,1.17665934 59.5459121,1.43621978 C60.0982198,1.68369231 60.2588791,1.80984615 59.7325055,1.86984615 C57.1571209,1.45556044 54.9355824,2.48962637 53.0812967,5.01907692 C51.5549231,7.18369231 50.9206374,9.60259341 51.1914066,12.3188571" id="Fill-3" sketch:type="MSShapeGroup"></path>
                <path d="M52.0200879,12.2862198 C51.5581099,11.7365495 51.9787692,10.3541319 52.8323956,9.35303297 C53.8730549,8.12995604 55.4548132,6.54556044 55.7451429,7.11874725 C55.8317363,7.28182418 55.2912967,7.37874725 54.6247033,8.36534066 C54.0831648,9.16797802 54.5822857,9.30665934 54.8049231,8.91259341 C55.5605275,7.76446154 56.1082198,7.46578022 56.9352527,6.97940659 C57.5961319,6.58841758 58.8392088,6.29457143 58.8981099,6.50621978 C58.957011,6.71962637 58.5159121,6.88446154 58.2862418,7.17479121 C57.9504176,7.59786813 57.8341538,8.24358242 58.7844835,7.35017582 C59.5293187,6.58665934 60.4181099,6.34885714 61.304044,6.56665934 C61.5306374,6.63676923 61.4216264,6.84753846 61.1541538,6.9427033 C61.1541538,6.9427033 60.5776703,7.11830769 60.3526154,7.45984615 C59.9583297,8.06534066 60.0436044,8.45545055 60.3297582,8.25808791 C61.4458022,7.59105495 62.6701978,7.89698901 64.3985495,8.87303297 C64.7631648,9.07786813 65.3451429,9.46665934 65.2367912,9.57391209 C65.0049231,9.80336264 62.6523956,8.44621978 62.6858022,8.93479121 C63.1941538,9.15105495 64.0196484,9.66863736 64.6822857,10.3013846 C65.1948132,10.8035824 65.5036044,11.4765495 65.7233846,12.1833626 C65.8712967,12.773033 65.8706374,12.9763297 65.4987692,12.5985275 C64.2394286,10.3090769 62.0574505,9.19061538 58.928,9.28578022 C56.2847033,9.41237363 53.9901978,10.4009451 52.0200879,12.2862198" id="Fill-5" sketch:type="MSShapeGroup"></path>
                <path d="M14.0045495,49.1103516 L13.9801538,49.1103516 C13.8337802,49.1347473 13.6874066,49.1593626 13.541033,49.1593626 C13.3458681,49.1835385 13.1750989,49.2079341 12.9799341,49.2079341 L12.9555385,49.2079341 C12.4188352,49.2567253 11.8333407,49.2567253 11.2966374,49.2567253 L11.2722418,49.2567253 C11.0770769,49.2811209 10.8819121,49.2811209 10.6867473,49.2811209 C10.4915824,49.2811209 10.2964176,49.3057363 10.1012527,49.3057363 C9.90608791,49.3299121 9.73531868,49.3299121 9.56454945,49.3543077 C9.39378022,49.3789231 9.24740659,49.3789231 9.07663736,49.4030989 L8.56432967,49.4030989 C8.1983956,49.4274945 7.83246154,49.4274945 7.46652747,49.4762857 C6.56389011,49.5738681 5.66125275,49.5738681 4.70982418,49.5738681 C4.31949451,49.5494725 3.95356044,49.5252967 3.58762637,49.5252967 C3.22169231,49.5006813 2.83136264,49.4762857 2.46542857,49.4762857 C1.95312088,49.4274945 1.39202198,49.3789231 0.855318681,49.3543077 C0.733340659,49.3543077 0.660153846,49.3789231 0.586967033,49.4030989 C0.562571429,49.4274945 0.538175824,49.4274945 0.51378022,49.4274945 L0.0258681319,49.5494725 L0.318615385,49.9885934 C0.367406593,50.0617802 0.416197802,50.134967 0.489384615,50.183978 C0.489384615,50.2081538 0.51378022,50.2081538 0.51378022,50.2325495 L0.51378022,50.7936484 L0.51378022,51.1595824 C0.51378022,51.4037582 0.538175824,51.6718901 0.562571429,51.9402418 C0.562571429,52.2088132 0.586967033,52.4525495 0.611362637,52.7211209 L0.611362637,52.7696923 C0.635758242,53.0870549 0.660153846,53.403978 0.684549451,53.7211209 C0.708945055,53.8189231 0.733340659,53.9162857 0.782131868,54.0140879 C0.879714286,54.1846374 1.09927473,54.2822198 1.34323077,54.209033 C1.61158242,54.1358462 1.78235165,53.8677143 1.73356044,53.5503516 C1.70916484,53.403978 1.68476923,53.282 1.68476923,53.1602418 C1.66037363,53.038044 1.63597802,52.9160659 1.61158242,52.7943077 C1.61158242,52.6721099 1.61158242,52.5747473 1.58718681,52.4769451 C1.58718681,52.3551868 1.58718681,52.2573846 1.56279121,52.1356264 C1.56279121,52.0134286 1.56279121,51.9160659 1.5383956,51.7938681 L1.5383956,51.5011209 C1.5383956,51.1351868 1.5383956,50.7936484 1.56279121,50.4035385 C1.63597802,50.4035385 1.70916484,50.4035385 1.78235165,50.4277143 L2.12389011,50.4277143 L2.12389011,50.4521099 C2.44103297,50.4521099 2.75817582,50.4767253 3.05092308,50.5009011 C3.34367033,50.5009011 3.61202198,50.5252967 3.90476923,50.5252967 C4.14872527,50.5499121 4.46586813,50.5499121 4.75861538,50.5499121 C4.90498901,50.5252967 5.02696703,50.5252967 5.17334066,50.5252967 C5.49048352,50.5252967 5.80762637,50.5252967 6.14916484,50.5009011 L7.00301099,50.5009011 L7.00301099,50.5499121 C6.97861538,50.6472747 6.97861538,50.7448571 7.00301099,50.8426593 L6.95421978,51.0132088 C6.92982418,51.062 6.90542857,51.1351868 6.90542857,51.2327692 C6.85663736,51.8428791 6.85663736,52.4283736 6.92982418,52.9648571 C6.95421978,53.3798022 6.95421978,53.8189231 6.97861538,54.2578242 L6.97861538,54.9165055 L6.97861538,55.2582637 C6.95421978,55.4532088 6.95421978,55.6483736 6.95421978,55.8191429 C6.97861538,56.2582637 7.02740659,56.672989 7.0518022,57.0879341 C7.0761978,57.2340879 7.0761978,57.4048571 7.10059341,57.5758462 C6.85663736,57.5758462 6.61268132,57.5512308 6.36872527,57.5268352 L6.31993407,57.5268352 C6.07597802,57.5026593 5.85641758,57.478044 5.58806593,57.478044 C5.4172967,57.478044 5.24652747,57.5758462 5.14894505,57.7222198 C5.05136264,57.843978 5.02696703,58.014967 5.05136264,58.1855165 C5.10015385,58.4294725 5.4172967,58.5514505 5.61246154,58.5514505 L7.02740659,58.5514505 L7.12498901,58.5514505 L7.12498901,58.6978242 C7.10059341,58.9417802 7.0761978,59.1613407 7.0761978,59.4296923 C7.10059341,60.112989 7.12498901,60.8448571 7.12498901,61.5767253 L7.12498901,61.8936484 C7.10059341,62.0158462 7.10059341,62.1132088 7.10059341,62.2354066 L7.10059341,62.2595824 C7.12498901,62.3817802 7.12498901,62.5035385 7.12498901,62.6499121 C7.14938462,62.8694725 7.17378022,63.1136484 7.17378022,63.3088132 L7.10059341,65.6017802 C6.88103297,65.6017802 6.63707692,65.5776044 6.39312088,65.5776044 C6.19795604,65.5776044 6.02718681,65.6017802 5.85641758,65.6507912 C5.66125275,65.6993626 5.58806593,65.8945275 5.53927473,65.9677143 L5.53927473,65.9923297 L5.27092308,66.3824396 L5.71004396,66.5288132 C5.73443956,66.5288132 5.73443956,66.5288132 5.75883516,66.5532088 C5.80762637,66.5778242 5.90520879,66.602 6.00279121,66.6263956 L6.27114286,66.6263956 L6.34432967,66.6263956 L6.83224176,66.6263956 C7.19817582,66.651011 7.53971429,66.651011 7.90564835,66.651011 L8.51553846,66.651011 L9.12542857,66.651011 C9.36938462,66.651011 9.58894505,66.5046374 9.63773626,66.3092527 C9.68652747,66.1140879 9.58894505,65.9677143 9.54015385,65.8703516 C9.49136264,65.7725495 9.41817582,65.6993626 9.2718022,65.6507912 L9.22301099,65.6261758 L9.14982418,65.6261758 C9.12542857,65.6261758 9.07663736,65.6261758 9.02784615,65.6017802 C8.80828571,65.5776044 8.53993407,65.552989 8.29597802,65.6017802 L8.24718681,65.6261758 L8.1496044,65.6261758 C8.174,65.5044176 8.174,65.358044 8.174,65.2116703 C8.174,64.9921099 8.174,64.7725495 8.1983956,64.552989 L8.1983956,64.5283736 L8.1983956,64.138044 L8.1983956,63.3573846 C8.1983956,62.9672747 8.174,62.5523297 8.1496044,62.1622198 C8.1496044,62.089033 8.1496044,62.0158462 8.174,61.918044 C8.174,61.7472747 8.1983956,61.5277143 8.174,61.3081538 C8.07641758,60.4789231 8.07641758,59.6736484 8.174,58.8441978 L8.174,58.7954066 C8.174,58.7222198 8.174,58.6246374 8.1496044,58.5272747 C8.29597802,58.5514505 8.44235165,58.5272747 8.58872527,58.5272747 L8.83268132,58.5272747 C8.90586813,58.5272747 9.14982418,58.5272747 9.2961978,58.3562857 C9.39378022,58.2587033 9.41817582,58.1123297 9.39378022,57.9903516 C9.39378022,57.6976044 9.17421978,57.478044 8.88147253,57.478044 L8.78389011,57.478044 L8.7107033,57.5026593 C8.51553846,57.5026593 8.32037363,57.5268352 8.1496044,57.5268352 C8.12520879,57.4048571 8.12520879,57.2830989 8.10081319,57.1367253 L8.10081319,57.0635385 C8.00323077,56.5024396 8.00323077,55.9169451 8.00323077,55.3314505 C8.00323077,55.1118901 7.97883516,54.9165055 7.97883516,54.6969451 C7.97883516,54.4532088 7.95443956,54.209033 7.95443956,53.9652967 C7.95443956,53.6967253 7.95443956,53.452989 7.93004396,53.1844176 L7.85685714,52.282 C7.85685714,52.2088132 7.88125275,52.111011 7.88125275,52.0134286 C7.88125275,51.8182637 7.88125275,51.6233187 7.85685714,51.4279341 L7.85685714,51.3547473 L7.93004396,50.989033 C7.95443956,50.7936484 8.00323077,50.6230989 8.02762637,50.4521099 L8.29597802,50.4521099 C8.66191209,50.4277143 9.05224176,50.4277143 9.41817582,50.4035385 C9.71092308,50.3789231 10.0280659,50.3545275 10.3208132,50.3303516 C10.5891648,50.3057363 10.8819121,50.2813407 11.1502637,50.2813407 C11.6137802,50.2571648 12.1016923,50.2571648 12.5896044,50.2571648 C12.8335604,50.2571648 13.1019121,50.2571648 13.3702637,50.2325495 C13.3458681,50.6230989 13.3214725,51.0378242 13.2726813,51.4279341 C13.2482857,51.8182637 13.2482857,52.2088132 13.2238901,52.5989231 C13.1994945,52.9892527 13.1994945,53.3798022 13.1750989,53.7699121 L13.1750989,53.8189231 C13.1750989,53.9409011 13.1507033,54.1358462 13.3214725,54.3068352 C13.4434505,54.4285934 13.5898242,54.4773846 13.784989,54.4773846 L14.0533407,54.4773846 L14.1265275,54.209033 C14.1265275,54.1604615 14.1509231,54.1114505 14.1509231,54.0626593 C14.1997143,53.9162857 14.2485055,53.7457363 14.2485055,53.5747473 C14.2729011,53.3551868 14.2729011,53.1602418 14.2729011,52.9406813 L14.2729011,52.3305714 C14.2729011,52.111011 14.2972967,51.9160659 14.2972967,51.7206813 C14.3216923,51.5011209 14.3216923,51.2815604 14.3216923,51.0863956 L14.3948791,50.0861758 L14.4680659,50.0376044 L14.4924615,49.9644176 C14.4924615,49.9398022 14.4924615,49.9154066 14.5168571,49.9154066 C14.5656484,49.818044 14.712022,49.5738681 14.4924615,49.3543077 C14.3460879,49.2079341 14.1753187,49.1103516 14.0045495,49.1103516 L14.0045495,49.1103516 Z M31.0570769,65.6017802 L30.9594945,65.6017802 C30.5447692,65.6507912 30.0812527,65.6993626 29.5933407,65.723978 L29.5201538,65.723978 C29.4957582,65.6993626 29.4957582,65.6507912 29.4713626,65.6261758 C29.3981758,65.358044 29.324989,65.0894725 29.2761978,64.8211209 C29.1054286,64.2356264 28.9590549,63.6257363 28.7638901,63.0404615 C28.6663077,62.6255165 28.5199341,62.2107912 28.397956,61.8204615 C28.2515824,61.4057363 28.1296044,60.9912308 28.0076264,60.6006813 L27.8856484,60.1615604 C27.6904835,59.5028791 27.4953187,58.8932088 27.3245495,58.2587033 L27.3245495,58.2345275 C27.3245495,58.2099121 27.3245495,58.1855165 27.3001538,58.1613407 L27.3489451,58.1613407 L27.4953187,58.1613407 L27.6416923,58.1613407 C27.6660879,58.1613407 27.7148791,58.1855165 27.7636703,58.2099121 C27.8612527,58.2345275 27.9832308,58.2830989 28.1296044,58.2830989 C28.275978,58.2830989 28.4223516,58.2345275 28.5443297,58.1613407 L28.3735604,57.843978 L28.5443297,57.5512308 C28.5199341,57.5268352 28.4955385,57.5268352 28.4711429,57.5026593 C28.397956,57.4536484 28.3003736,57.3804615 28.154,57.3804615 C27.8368571,57.3316703 27.4709231,57.3072747 27.1293846,57.2830989 L27.104989,57.2830989 L27.0561978,57.2830989 C27.0074066,57.0635385 26.9586154,56.843978 26.8854286,56.5998022 C26.6658681,56.0387033 26.5682857,55.4532088 26.4707033,54.8191429 L26.4219121,54.5995824 C26.4219121,54.4532088 26.3975165,54.331011 26.3731209,54.209033 C26.2999341,53.6479341 26.2267473,53.0624396 26.0071868,52.4525495 C25.812022,51.9646374 25.6412527,51.4037582 25.4948791,50.8668352 L25.4704835,50.7448571 C25.3972967,50.5499121 25.3485055,50.3303516 25.3241099,50.1107912 L25.5436703,50.1107912 C25.9583956,50.0861758 26.4463077,50.0617802 26.861033,49.7202418 L26.6658681,49.4521099 L26.7390549,49.0861758 C26.4707033,49.0371648 26.2023516,49.012989 25.934,49.012989 L25.9096044,49.012989 C25.7632308,49.012989 25.6168571,49.0371648 25.4460879,49.0615604 C25.2509231,49.0861758 25.0313626,49.0861758 24.8361978,49.0861758 L24.6166374,49.0861758 C23.835978,48.9883736 23.0553187,48.9883736 22.2014725,49.0615604 L20.8841099,49.1347473 L20.8353187,49.1347473 L20.8109231,49.1347473 C20.3718022,49.2079341 20.323011,49.5006813 20.323011,49.6470549 C20.323011,49.6958462 20.323011,49.7448571 20.3474066,49.7934286 L20.3961978,50.0861758 L20.6889451,50.0861758 L20.8841099,50.0861758 C20.9572967,50.0861758 21.0304835,50.1107912 21.1280659,50.1107912 C21.5671868,50.0861758 22.0063077,50.0617802 22.4698242,50.0617802 L22.543011,50.0617802 C22.5186154,50.1593626 22.4942198,50.2325495 22.4698242,50.3303516 L22.4454286,50.4035385 C22.2502637,51.111011 22.0550989,51.8428791 21.7135604,52.4769451 L21.0548791,54.0140879 C20.5913626,55.2336484 20.2254286,56.2338681 19.8838901,57.1367253 C19.8594945,57.2340879 19.8350989,57.2340879 19.7863077,57.2340879 L18.103011,57.2340879 C17.7614725,57.2340879 17.5419121,57.4536484 17.5419121,57.843978 L17.9078462,57.843978 L17.8346593,58.1855165 C17.8834505,58.1855165 17.9322418,58.2099121 17.981033,58.2099121 C18.1274066,58.2345275 18.2737802,58.2587033 18.4201538,58.2587033 L18.4445495,58.2587033 C18.7860879,58.2345275 19.1276264,58.2099121 19.4447692,58.2099121 L19.4935604,58.2099121 L19.517956,58.2099121 C19.4691648,58.3809011 19.395978,58.5514505 19.3471868,58.7222198 C19.274,58.9663956 19.2008132,59.2101319 19.1276264,59.4540879 C18.9812527,60.0151868 18.8348791,60.5762857 18.6641099,61.112989 L18.5421319,61.4545275 C18.2493846,62.3085934 17.9566374,63.1136484 17.7614725,63.9916703 C17.6394945,64.503978 17.4931209,65.0894725 17.2003736,65.6017802 L16.7612527,65.6017802 L16.7124615,65.6017802 C16.5904835,65.6261758 16.4929011,65.6261758 16.3709231,65.6261758 C16.2489451,65.6507912 16.126967,65.6507912 16.004989,65.6507912 L15.9074066,65.6507912 C15.8342198,65.6261758 15.761033,65.6261758 15.6878462,65.6261758 C15.4438901,65.6261758 15.2487253,65.723978 15.1023516,65.8945275 L15.3463077,66.1387033 L15.1755385,66.4314505 C15.3463077,66.5532088 15.5414725,66.602 15.7854286,66.602 C15.883011,66.602 16.004989,66.5778242 16.1025714,66.5778242 C16.2001538,66.5532088 16.2733407,66.5532088 16.3465275,66.5532088 L17.3955385,66.5532088 C17.7614725,66.5532088 18.1274066,66.5288132 18.4933407,66.5046374 C18.6153187,66.5046374 18.7129011,66.5046374 18.8104835,66.5288132 L19.1276264,66.5288132 C19.3227912,66.5288132 19.4691648,66.5288132 19.6399341,66.480022 L19.517956,66.1387033 L19.8107033,65.9189231 C19.6399341,65.674967 19.395978,65.552989 19.0788352,65.552989 L18.8592747,65.552989 C18.8104835,65.552989 18.7860879,65.5776044 18.7129011,65.552989 C18.5909231,65.552989 18.4689451,65.552989 18.3225714,65.5776044 L18.2737802,65.5776044 C18.6397143,64.0892527 20.1522418,59.3077143 20.5425714,58.2587033 C20.6645495,58.2587033 20.8109231,58.2587033 20.9572967,58.2830989 C22.2502637,58.3809011 23.5676264,58.3809011 24.8605934,58.2830989 C25.2753187,58.2587033 25.690044,58.2345275 26.1291648,58.2099121 L26.3243297,58.2099121 L26.3487253,58.2099121 C26.3487253,58.2345275 26.3487253,58.2587033 26.3731209,58.2830989 C26.5682857,59.0395824 26.7878462,59.820022 27.0074066,60.6006813 C27.1537802,61.0154066 27.2757582,61.4303516 27.3977363,61.8448571 C27.4953187,62.1132088 27.5929011,62.405956 27.6660879,62.6745275 L28.2271868,64.6015604 C28.3003736,64.9674945 28.397956,65.3334286 28.4955385,65.723978 C28.0076264,65.7481538 27.5441099,65.7481538 27.0561978,65.7725495 L26.9342198,65.7725495 L26.9342198,66.1387033 L26.5926813,66.2118901 C26.7146593,66.6995824 27.0561978,66.7483736 27.2025714,66.7483736 L27.3489451,66.7483736 C27.6660879,66.7483736 28.0076264,66.7241978 28.3003736,66.6995824 C28.6907033,66.6751868 29.0566374,66.6751868 29.4225714,66.6751868 C29.8129011,66.6751868 30.1788352,66.651011 30.5447692,66.651011 C30.7399341,66.651011 30.9107033,66.6263956 31.0814725,66.602 C31.1546593,66.5778242 31.2522418,66.5532088 31.3498242,66.5532088 L31.3254286,66.2118901 L31.666967,66.1387033 C31.6181758,65.7971648 31.3986154,65.6017802 31.0570769,65.6017802 L31.0570769,65.6017802 Z M23.3724615,50.012989 L23.8115824,50.012989 L23.9335604,50.012989 C24.2750989,50.012989 24.3238901,50.012989 24.4458681,50.4767253 C24.5190549,50.6716703 24.5434505,50.8426593 24.6166374,51.0378242 C24.6898242,51.3305714 24.763011,51.6233187 24.8605934,51.9160659 C25.2021319,52.7696923 25.3972967,53.6967253 25.5436703,54.9409011 C25.5924615,55.380022 25.690044,55.8191429 25.812022,56.2338681 C25.8608132,56.4292527 25.9096044,56.6241978 25.9583956,56.8193626 C25.9827912,56.9657363 26.0315824,57.1367253 26.055978,57.3072747 C25.9096044,57.3072747 25.7632308,57.3316703 25.6168571,57.3316703 C24.6898242,57.3804615 23.835978,57.4294725 22.9333407,57.4294725 C22.1770769,57.4294725 21.4696044,57.3804615 20.8353187,57.3072747 L20.8353187,57.2830989 C21.2012527,56.2828791 21.615978,55.1604615 22.0794945,53.9652967 C22.1770769,53.7211209 22.2502637,53.4771648 22.3722418,53.2576044 C22.8113626,52.3551868 23.0797143,51.3791429 23.3480659,50.4521099 L23.3480659,50.4035385 C23.3724615,50.3303516 23.3724615,50.2571648 23.3724615,50.183978 L23.3724615,50.012989 Z M46.1335604,49.1103516 L46.1091648,49.1103516 C45.9627912,49.1347473 45.8164176,49.1593626 45.670044,49.1593626 C45.4748791,49.1835385 45.3041099,49.2079341 45.1089451,49.2079341 L45.0845495,49.2079341 C44.5478462,49.2567253 43.9623516,49.2567253 43.4256484,49.2567253 L43.4012527,49.2567253 C43.2060879,49.2811209 43.0109231,49.2811209 42.8157582,49.2811209 C42.6205934,49.2811209 42.4254286,49.3057363 42.2302637,49.3057363 C42.0350989,49.3299121 41.8643297,49.3299121 41.6935604,49.3543077 C41.5227912,49.3789231 41.3764176,49.3789231 41.2056484,49.4030989 L40.6933407,49.4030989 C40.3274066,49.4274945 39.9614725,49.4274945 39.5955385,49.4762857 C38.6929011,49.5738681 37.7902637,49.5738681 36.8388352,49.5738681 C36.4485055,49.5494725 36.0825714,49.5252967 35.7166374,49.5252967 C35.3507033,49.5006813 34.9603736,49.4762857 34.5944396,49.4762857 C34.0821319,49.4274945 33.521033,49.3789231 32.9843297,49.3543077 C32.8623516,49.3543077 32.7891648,49.3789231 32.715978,49.4030989 C32.6915824,49.4274945 32.6671868,49.4274945 32.6427912,49.4274945 L32.1548791,49.5494725 L32.4476264,49.9885934 C32.4964176,50.0617802 32.5452088,50.134967 32.6183956,50.183978 C32.6183956,50.2081538 32.6427912,50.2081538 32.6427912,50.2325495 L32.6427912,50.7936484 L32.6427912,51.1595824 C32.6427912,51.4037582 32.6671868,51.6718901 32.6915824,51.9402418 C32.6915824,52.2088132 32.715978,52.4525495 32.7403736,52.7211209 L32.7403736,52.7696923 C32.7647692,53.0870549 32.7891648,53.403978 32.8135604,53.7211209 C32.837956,53.8189231 32.8623516,53.9162857 32.9111429,54.0140879 C33.0087253,54.1846374 33.2282857,54.2822198 33.4722418,54.209033 C33.7405934,54.1358462 33.9113626,53.8677143 33.8625714,53.5503516 C33.8381758,53.403978 33.8137802,53.282 33.8137802,53.1602418 L33.7405934,52.7943077 C33.7405934,52.6721099 33.7405934,52.5747473 33.7161978,52.4769451 C33.7161978,52.3551868 33.7161978,52.2573846 33.6918022,52.1356264 C33.6918022,52.0134286 33.6918022,51.9160659 33.6674066,51.7938681 L33.6674066,51.5011209 C33.6674066,51.1351868 33.6674066,50.7936484 33.6918022,50.4035385 C33.764989,50.4035385 33.8381758,50.4035385 33.9113626,50.4277143 L34.2529011,50.4277143 L34.2529011,50.4521099 C34.570044,50.4521099 34.8871868,50.4767253 35.1799341,50.5009011 C35.4726813,50.5009011 35.741033,50.5252967 36.0337802,50.5252967 C36.2777363,50.5499121 36.5948791,50.5499121 36.8876264,50.5499121 C37.034,50.5252967 37.155978,50.5252967 37.3023516,50.5252967 C37.6194945,50.5252967 37.9366374,50.5252967 38.2781758,50.5009011 L39.132022,50.5009011 L39.132022,50.5499121 C39.1076264,50.6472747 39.1076264,50.7448571 39.132022,50.8426593 L39.0832308,51.0132088 C39.0588352,51.062 39.0344396,51.1351868 39.0344396,51.2327692 C38.9856484,51.8428791 38.9856484,52.4283736 39.0588352,52.9648571 C39.0832308,53.3798022 39.0832308,53.8189231 39.1076264,54.2578242 L39.1076264,54.9165055 L39.1076264,55.2582637 C39.0832308,55.4532088 39.0832308,55.6483736 39.0832308,55.8191429 C39.1076264,56.2582637 39.1564176,56.672989 39.1808132,57.0879341 C39.2052088,57.2340879 39.2052088,57.4048571 39.2296044,57.5758462 C38.9856484,57.5758462 38.7416923,57.5512308 38.4977363,57.5268352 L38.4489451,57.5268352 C38.204989,57.5026593 37.9854286,57.478044 37.7170769,57.478044 C37.5463077,57.478044 37.3755385,57.5758462 37.277956,57.7222198 C37.1803736,57.843978 37.155978,58.014967 37.1803736,58.1855165 C37.2291648,58.4294725 37.5463077,58.5514505 37.7414725,58.5514505 L39.1564176,58.5514505 L39.254,58.5514505 L39.254,58.6978242 C39.2296044,58.9417802 39.2052088,59.1613407 39.2052088,59.4296923 C39.2296044,60.112989 39.254,60.8448571 39.254,61.5767253 L39.254,61.8936484 C39.2296044,62.0158462 39.2296044,62.1132088 39.2296044,62.2354066 L39.2296044,62.2595824 C39.254,62.3817802 39.254,62.5035385 39.254,62.6499121 C39.2783956,62.8694725 39.3027912,63.1136484 39.3027912,63.3088132 L39.2296044,65.6017802 C39.010044,65.6017802 38.7660879,65.5776044 38.5221319,65.5776044 C38.326967,65.5776044 38.1561978,65.6017802 37.9854286,65.6507912 C37.7902637,65.6993626 37.7170769,65.8945275 37.6682857,65.9677143 L37.6682857,65.9923297 L37.3999341,66.3824396 L37.8390549,66.5288132 C37.8634505,66.5288132 37.8634505,66.5288132 37.8878462,66.5532088 C37.9366374,66.5778242 38.0342198,66.602 38.1318022,66.6263956 L38.4001538,66.6263956 L38.4733407,66.6263956 L38.9612527,66.6263956 C39.3271868,66.651011 39.6687253,66.651011 40.0346593,66.651011 L40.6445495,66.651011 L41.2544396,66.651011 C41.4983956,66.651011 41.717956,66.5046374 41.7667473,66.3092527 C41.8155385,66.1140879 41.717956,65.9677143 41.6691648,65.8703516 C41.6203736,65.7725495 41.5471868,65.6993626 41.4008132,65.6507912 L41.352022,65.6261758 L41.2788352,65.6261758 C41.2544396,65.6261758 41.2056484,65.6261758 41.1568571,65.6017802 C40.9372967,65.5776044 40.6689451,65.552989 40.424989,65.6017802 L40.3761978,65.6261758 L40.2786154,65.6261758 C40.303011,65.5044176 40.303011,65.358044 40.303011,65.2116703 C40.303011,64.9921099 40.303011,64.7725495 40.3274066,64.552989 L40.3274066,64.5283736 L40.3274066,64.138044 L40.3274066,63.3573846 C40.3274066,62.9672747 40.303011,62.5523297 40.2786154,62.1622198 C40.2786154,62.089033 40.2786154,62.0158462 40.303011,61.918044 C40.303011,61.7472747 40.3274066,61.5277143 40.303011,61.3081538 C40.2054286,60.4789231 40.2054286,59.6736484 40.303011,58.8441978 L40.303011,58.7954066 C40.303011,58.7222198 40.303011,58.6246374 40.2786154,58.5272747 C40.424989,58.5514505 40.5713626,58.5272747 40.7177363,58.5272747 L40.9616923,58.5272747 C41.0348791,58.5272747 41.2788352,58.5272747 41.4252088,58.3562857 C41.5227912,58.2587033 41.5471868,58.1123297 41.5227912,57.9903516 C41.5227912,57.6976044 41.3032308,57.478044 41.0104835,57.478044 L40.9129011,57.478044 L40.8397143,57.5026593 C40.6445495,57.5026593 40.4493846,57.5268352 40.2786154,57.5268352 C40.2542198,57.4048571 40.2542198,57.2830989 40.2298242,57.1367253 L40.2298242,57.0635385 C40.1322418,56.5024396 40.1322418,55.9169451 40.1322418,55.3314505 C40.1322418,55.1118901 40.1078462,54.9165055 40.1078462,54.6969451 C40.1078462,54.4532088 40.0834505,54.209033 40.0834505,53.9652967 C40.0834505,53.6967253 40.0834505,53.452989 40.0590549,53.1844176 L39.9858681,52.282 C39.9858681,52.2088132 40.0102637,52.111011 40.0102637,52.0134286 C40.0102637,51.8182637 40.0102637,51.6233187 39.9858681,51.4279341 L39.9858681,51.3547473 L40.0590549,50.989033 C40.0834505,50.7936484 40.1322418,50.6230989 40.1566374,50.4521099 L40.424989,50.4521099 C40.7909231,50.4277143 41.1812527,50.4277143 41.5471868,50.4035385 C41.8399341,50.3789231 42.1570769,50.3545275 42.4498242,50.3303516 C42.7181758,50.3057363 43.0109231,50.2813407 43.2792747,50.2813407 C43.7427912,50.2571648 44.2307033,50.2571648 44.7186154,50.2571648 C44.9625714,50.2571648 45.2309231,50.2571648 45.4992747,50.2325495 C45.4748791,50.6230989 45.4504835,51.0378242 45.4016923,51.4279341 C45.3772967,51.8182637 45.3772967,52.2088132 45.3529011,52.5989231 C45.3285055,52.9892527 45.3285055,53.3798022 45.3041099,53.7699121 L45.3041099,53.8189231 C45.3041099,53.9409011 45.2797143,54.1358462 45.4504835,54.3068352 C45.5724615,54.4285934 45.7188352,54.4773846 45.914,54.4773846 L46.1823516,54.4773846 L46.2555385,54.209033 C46.2555385,54.1604615 46.2799341,54.1114505 46.2799341,54.0626593 C46.3287253,53.9162857 46.3775165,53.7457363 46.3775165,53.5747473 C46.4019121,53.3551868 46.4019121,53.1602418 46.4019121,52.9406813 L46.4019121,52.3305714 C46.4019121,52.111011 46.4263077,51.9160659 46.4263077,51.7206813 C46.4507033,51.5011209 46.4507033,51.2815604 46.4507033,51.0863956 L46.5238901,50.0861758 L46.5970769,50.0376044 L46.6214725,49.9644176 C46.6214725,49.9398022 46.6214725,49.9154066 46.6458681,49.9154066 C46.6946593,49.818044 46.841033,49.5738681 46.6214725,49.3543077 C46.4750989,49.2079341 46.3043297,49.1103516 46.1335604,49.1103516 L46.1335604,49.1103516 Z M61.210044,49.1103516 L61.1856484,49.1103516 C61.0392747,49.1347473 60.8929011,49.1593626 60.7465275,49.1593626 C60.5513626,49.1835385 60.3805934,49.2079341 60.1854286,49.2079341 L60.161033,49.2079341 C59.6241099,49.2567253 59.0388352,49.2567253 58.5021319,49.2567253 L58.4777363,49.2567253 C58.2825714,49.2811209 58.0874066,49.2811209 57.892022,49.2811209 C57.6970769,49.2811209 57.5019121,49.3057363 57.3065275,49.3057363 C57.1115824,49.3299121 56.9405934,49.3299121 56.770044,49.3543077 C56.5992747,49.3789231 56.4529011,49.3789231 56.2821319,49.4030989 L55.7698242,49.4030989 C55.4038901,49.4274945 55.037956,49.4274945 54.672022,49.4762857 C53.7693846,49.5738681 52.8667473,49.5738681 51.9153187,49.5738681 C51.524989,49.5494725 51.1590549,49.5252967 50.7931209,49.5252967 C50.4271868,49.5006813 50.0368571,49.4762857 49.6709231,49.4762857 C49.1586154,49.4274945 48.5975165,49.3789231 48.0608132,49.3543077 C47.9388352,49.3543077 47.8656484,49.3789231 47.7924615,49.4030989 C47.7680659,49.4274945 47.7436703,49.4274945 47.7192747,49.4274945 L47.2313626,49.5494725 L47.5241099,49.9885934 C47.5729011,50.0617802 47.6216923,50.134967 47.6948791,50.183978 C47.6948791,50.2081538 47.7192747,50.2081538 47.7192747,50.2325495 L47.7192747,50.7936484 L47.7192747,51.1595824 C47.7192747,51.4037582 47.7436703,51.6718901 47.7680659,51.9402418 C47.7680659,52.2088132 47.7924615,52.4525495 47.8168571,52.7211209 L47.8168571,52.7696923 C47.8412527,53.0870549 47.8656484,53.403978 47.890044,53.7211209 C47.9144396,53.8189231 47.9388352,53.9162857 47.9876264,54.0140879 C48.0852088,54.1846374 48.3047692,54.2822198 48.5487253,54.209033 C48.8170769,54.1358462 48.9878462,53.8677143 48.9390549,53.5503516 C48.9146593,53.403978 48.8902637,53.282 48.8902637,53.1602418 L48.8170769,52.7943077 C48.8170769,52.6721099 48.8170769,52.5747473 48.7926813,52.4769451 C48.7926813,52.3551868 48.7926813,52.2573846 48.7682857,52.1356264 C48.7682857,52.0134286 48.7682857,51.9160659 48.7438901,51.7938681 L48.7438901,51.5011209 C48.7438901,51.1351868 48.7438901,50.7936484 48.7682857,50.4035385 C48.8414725,50.4035385 48.9146593,50.4035385 48.9878462,50.4277143 L49.3293846,50.4277143 L49.3293846,50.4521099 C49.6465275,50.4521099 49.9636703,50.4767253 50.2561978,50.5009011 C50.5489451,50.5009011 50.8175165,50.5252967 51.1102637,50.5252967 C51.354,50.5499121 51.6713626,50.5499121 51.9641099,50.5499121 C52.1104835,50.5252967 52.2324615,50.5252967 52.3788352,50.5252967 C52.695978,50.5252967 53.0131209,50.5252967 53.3546593,50.5009011 L54.2085055,50.5009011 L54.2085055,50.5499121 C54.1838901,50.6472747 54.1838901,50.7448571 54.2085055,50.8426593 L54.1597143,51.0132088 C54.1353187,51.062 54.1107033,51.1351868 54.1107033,51.2327692 C54.0621319,51.8428791 54.0621319,52.4283736 54.1353187,52.9648571 C54.1597143,53.3798022 54.1597143,53.8189231 54.1838901,54.2578242 L54.1838901,54.9165055 L54.1838901,55.2582637 C54.1597143,55.4532088 54.1597143,55.6483736 54.1597143,55.8191429 C54.1838901,56.2582637 54.2329011,56.672989 54.2570769,57.0879341 C54.2816923,57.2340879 54.2816923,57.4048571 54.3060879,57.5758462 C54.0621319,57.5758462 53.817956,57.5512308 53.5742198,57.5268352 L53.5252088,57.5268352 C53.2814725,57.5026593 53.0619121,57.478044 52.7935604,57.478044 C52.6227912,57.478044 52.452022,57.5758462 52.3544396,57.7222198 C52.2568571,57.843978 52.2324615,58.014967 52.2568571,58.1855165 C52.3056484,58.4294725 52.6227912,58.5514505 52.817956,58.5514505 L54.2329011,58.5514505 L54.3302637,58.5514505 L54.3302637,58.6978242 C54.3060879,58.9417802 54.2816923,59.1613407 54.2816923,59.4296923 C54.3060879,60.112989 54.3302637,60.8448571 54.3302637,61.5767253 L54.3302637,61.8936484 C54.3060879,62.0158462 54.3060879,62.1132088 54.3060879,62.2354066 L54.3060879,62.2595824 C54.3302637,62.3817802 54.3302637,62.5035385 54.3302637,62.6499121 C54.3548791,62.8694725 54.3792747,63.1136484 54.3792747,63.3088132 L54.3060879,65.6017802 C54.0865275,65.6017802 53.8425714,65.5776044 53.5983956,65.5776044 C53.4034505,65.5776044 53.2326813,65.6017802 53.0619121,65.6507912 C52.8667473,65.6993626 52.7935604,65.8945275 52.7447692,65.9677143 L52.7447692,65.9923297 L52.4764176,66.3824396 L52.9155385,66.5288132 C52.9399341,66.5288132 52.9399341,66.5288132 52.9643297,66.5532088 C53.0131209,66.5778242 53.1107033,66.602 53.2082857,66.6263956 L53.4766374,66.6263956 L53.5498242,66.6263956 L54.0375165,66.6263956 C54.4034505,66.651011 54.7452088,66.651011 55.1111429,66.651011 L55.721033,66.651011 L56.3309231,66.651011 C56.5746593,66.651011 56.7942198,66.5046374 56.8432308,66.3092527 C56.892022,66.1140879 56.7942198,65.9677143 56.7456484,65.8703516 C56.6968571,65.7725495 56.6236703,65.6993626 56.4772967,65.6507912 L56.4285055,65.6261758 L56.3550989,65.6261758 C56.3309231,65.6261758 56.2821319,65.6261758 56.2333407,65.6017802 C56.0137802,65.5776044 55.7454286,65.552989 55.5014725,65.6017802 L55.4526813,65.6261758 L55.3550989,65.6261758 C55.3794945,65.5044176 55.3794945,65.358044 55.3794945,65.2116703 C55.3794945,64.9921099 55.3794945,64.7725495 55.4038901,64.552989 L55.4038901,64.5283736 L55.4038901,64.138044 L55.4038901,63.3573846 C55.4038901,62.9672747 55.3794945,62.5523297 55.3550989,62.1622198 C55.3550989,62.089033 55.3550989,62.0158462 55.3794945,61.918044 C55.3794945,61.7472747 55.4038901,61.5277143 55.3794945,61.3081538 C55.2819121,60.4789231 55.2819121,59.6736484 55.3794945,58.8441978 L55.3794945,58.7954066 C55.3794945,58.7222198 55.3794945,58.6246374 55.3550989,58.5272747 C55.5014725,58.5514505 55.6478462,58.5272747 55.7942198,58.5272747 L56.0381758,58.5272747 C56.1113626,58.5272747 56.3550989,58.5272747 56.5014725,58.3562857 C56.5992747,58.2587033 56.6236703,58.1123297 56.5992747,57.9903516 C56.5992747,57.6976044 56.3797143,57.478044 56.086967,57.478044 L55.9893846,57.478044 L55.9161978,57.5026593 C55.721033,57.5026593 55.5258681,57.5268352 55.3550989,57.5268352 C55.3307033,57.4048571 55.3307033,57.2830989 55.3063077,57.1367253 L55.3063077,57.0635385 C55.2087253,56.5024396 55.2087253,55.9169451 55.2087253,55.3314505 C55.2087253,55.1118901 55.1843297,54.9165055 55.1843297,54.6969451 C55.1843297,54.4532088 55.1599341,54.209033 55.1599341,53.9652967 C55.1599341,53.6967253 55.1599341,53.452989 55.1355385,53.1844176 L55.0621319,52.282 C55.0621319,52.2088132 55.0867473,52.111011 55.0867473,52.0134286 C55.0867473,51.8182637 55.0867473,51.6233187 55.0621319,51.4279341 L55.0621319,51.3547473 L55.1355385,50.989033 C55.1599341,50.7936484 55.2087253,50.6230989 55.2331209,50.4521099 L55.5014725,50.4521099 C55.8674066,50.4277143 56.2577363,50.4277143 56.6236703,50.4035385 C56.9164176,50.3789231 57.2333407,50.3545275 57.5260879,50.3303516 C57.7946593,50.3057363 58.0874066,50.2813407 58.3557582,50.2813407 C58.8192747,50.2571648 59.3071868,50.2571648 59.7950989,50.2571648 C60.0390549,50.2571648 60.3074066,50.2571648 60.5755385,50.2325495 C60.5513626,50.6230989 60.526967,51.0378242 60.4781758,51.4279341 C60.4537802,51.8182637 60.4537802,52.2088132 60.4291648,52.5989231 C60.404989,52.9892527 60.404989,53.3798022 60.3805934,53.7699121 L60.3805934,53.8189231 C60.3805934,53.9409011 60.355978,54.1358462 60.526967,54.3068352 C60.6487253,54.4285934 60.7950989,54.4773846 60.9904835,54.4773846 L61.2588352,54.4773846 L61.332022,54.209033 C61.332022,54.1604615 61.3564176,54.1114505 61.3564176,54.0626593 C61.4052088,53.9162857 61.454,53.7457363 61.454,53.5747473 C61.4783956,53.3551868 61.4783956,53.1602418 61.4783956,52.9406813 L61.4783956,52.3305714 C61.4783956,52.111011 61.5027912,51.9160659 61.5027912,51.7206813 C61.5271868,51.5011209 61.5271868,51.2815604 61.5271868,51.0863956 L61.6003736,50.0861758 L61.6735604,50.0376044 L61.697956,49.9644176 C61.697956,49.9398022 61.697956,49.9154066 61.7223516,49.9154066 C61.7711429,49.818044 61.9175165,49.5738681 61.697956,49.3543077 C61.5515824,49.2079341 61.3808132,49.1103516 61.210044,49.1103516 L61.210044,49.1103516 Z M75.2863077,57.0635385 C75.0667473,57.0389231 74.8471868,57.0389231 74.6276264,57.0635385 C74.6032308,56.9657363 74.6032308,56.843978 74.6032308,56.7461758 C74.6032308,56.5998022 74.5788352,56.4778242 74.5788352,56.3314505 L74.5788352,55.380022 L74.5788352,55.3314505 C74.5544396,55.2092527 74.5544396,55.0872747 74.530044,54.9409011 C74.5054286,54.6727692 74.5054286,54.380022 74.4324615,54.0872747 C74.3104835,53.6235385 74.1153187,53.1602418 73.9201538,52.7452967 L73.8957582,52.6965055 C73.724989,52.4037582 73.5054286,52.0866154 73.2124615,51.6965055 C73.0907033,51.5255165 72.9197143,51.4037582 72.7733407,51.2573846 C72.7001538,51.1841978 72.6027912,51.111011 72.5296044,51.0378242 C72.3832308,50.9158462 72.261033,50.7694725 72.1146593,50.6472747 C71.9929011,50.5252967 71.8465275,50.4035385 71.7001538,50.2571648 C71.4074066,49.9644176 71.0658681,49.6958462 70.6999341,49.4762857 C70.5047692,49.3299121 70.2608132,49.1835385 69.9680659,49.0615604 C69.6265275,48.963978 69.2605934,48.8666154 68.8702637,48.7688132 L68.8456484,48.7688132 C68.6263077,48.7444176 68.3823516,48.7444176 68.1383956,48.7444176 C67.9676264,48.7444176 67.7968571,48.842 67.7236703,48.9151868 L67.6748791,48.963978 L67.6504835,49.0371648 C67.6260879,49.0615604 67.6016923,49.0861758 67.4797143,49.1347473 C67.4065275,49.1593626 67.3577363,49.1835385 67.3089451,49.2079341 L67.2357582,49.2567253 C67.2113626,49.2811209 67.1625714,49.3057363 67.1135604,49.3299121 C67.0403736,49.3789231 66.943011,49.4274945 66.8698242,49.5006813 C66.4307033,49.8912308 66.0889451,50.2571648 65.772022,50.5984835 C65.4548791,50.9158462 65.2109231,51.3547473 65.0401538,51.8670549 C64.966967,52.0866154 64.8693846,52.3305714 64.7718022,52.5747473 C64.6254286,52.9406813 64.4790549,53.3307912 64.3570769,53.7211209 C64.1863077,54.331011 64.0641099,54.9409011 63.9423516,55.551011 L63.8935604,55.7215604 C63.795978,56.2828791 63.7713626,56.843978 63.7471868,57.3804615 L63.7471868,57.4536484 L63.674,57.4536484 L63.6496044,57.478044 L62.8931209,57.478044 L62.8445495,57.478044 L62.7713626,57.5026593 C62.3566374,57.5512308 62.3076264,57.8685934 62.3076264,58.014967 L62.3076264,58.0635385 C62.3566374,58.4050769 62.624989,58.5758462 62.9909231,58.5272747 L63.0153187,58.5272747 C63.0885055,58.5026593 63.1616923,58.4782637 63.2104835,58.4782637 L63.2590549,58.4782637 C63.3812527,58.4782637 63.5032308,58.4540879 63.6496044,58.4540879 L63.6981758,58.4540879 L63.6981758,58.6978242 C63.674,59.1613407 63.674,59.6250769 63.674,60.0641978 C63.674,60.5030989 63.7713626,60.918044 63.8445495,61.3325495 L63.8935604,61.5277143 C64.0641099,62.2595824 64.3326813,62.9428791 64.6498242,63.5525495 C64.9181758,63.9916703 65.1865275,64.4066154 65.4548791,64.7479341 C65.6498242,65.0406813 65.9425714,65.4312308 66.3085055,65.723978 C66.7234505,66.0655165 67.2357582,66.3336484 67.870044,66.5288132 C67.9432308,66.5532088 68.0164176,66.5778242 68.0896044,66.6263956 C68.235978,66.6751868 68.4065275,66.7483736 68.6019121,66.7727692 C68.7482857,66.7973846 68.8946593,66.7973846 69.041033,66.7973846 C69.4311429,66.7973846 69.8216923,66.7483736 70.2608132,66.602 C70.5535604,66.480022 70.8707033,66.3582637 71.1634505,66.2362857 C71.4318022,66.1140879 71.7245495,65.9923297 72.0172967,65.8945275 C72.7247692,65.6261758 73.0907033,65.0652967 73.3346593,64.552989 C73.481033,64.2356264 73.603011,63.8943077 73.7005934,63.5283736 C73.724989,63.4061758 73.7737802,63.2841978 73.7981758,63.1624396 C73.9201538,62.7962857 74.0421319,62.4303516 74.1153187,62.040022 C74.2129011,61.3571648 74.3104835,60.6494725 74.4080659,59.991011 L74.4812527,59.5028791 C74.530044,59.1613407 74.5788352,58.8685934 74.6032308,58.5514505 L74.6276264,58.4782637 L74.6276264,58.0881538 C74.8713626,58.0635385 75.1155385,58.0391429 75.3594945,57.9903516 C75.5546593,57.965956 75.6522418,57.8195824 75.6764176,57.7707912 L75.944989,57.5268352 L75.6764176,57.2584835 C75.6278462,57.2099121 75.5058681,57.0879341 75.2863077,57.0635385 L75.2863077,57.0635385 Z M70.8950989,65.2358462 C70.6999341,65.3334286 70.5047692,65.4312308 70.334,65.4798022 C69.9680659,65.6017802 69.5533407,65.6993626 69.0898242,65.7725495 C68.8702637,65.7971648 68.6750989,65.7725495 68.4555385,65.6507912 C68.357956,65.6017802 68.235978,65.5776044 68.114,65.552989 C68.0408132,65.5285934 67.9676264,65.5044176 67.9188352,65.4798022 L67.8944396,65.4798022 C67.4553187,65.3334286 67.0893846,65.1138681 66.8208132,64.7967253 C66.5038901,64.4798022 66.2111429,64.0892527 65.9183956,63.6257363 C65.6988352,63.2841978 65.5280659,62.9182637 65.3329011,62.5281538 C65.2841099,62.405956 65.2109231,62.2595824 65.1621319,62.1622198 C65.1133407,62.0644176 65.0889451,61.9426593 65.0645495,61.7962857 C65.0401538,61.6984835 65.0157582,61.6009011 64.9913626,61.5035385 C64.9425714,61.3325495 64.8937802,61.1861758 64.8693846,61.0644176 L64.8693846,61.0398022 C64.7961978,60.7226593 64.7474066,60.4057363 64.723011,60.112989 C64.723011,59.9666154 64.723011,59.820022 64.7474066,59.6736484 C64.7474066,59.5028791 64.7718022,59.3323297 64.7718022,59.1613407 C64.7718022,58.8932088 64.7474066,58.6736484 64.723011,58.4294725 L65.5034505,58.4294725 L65.5768571,58.4294725 C65.6498242,58.3809011 65.723011,58.3562857 65.7476264,58.3077143 L65.7961978,58.3077143 L66.3331209,58.1123297 L65.9183956,57.6976044 C65.894,57.6976044 65.894,57.6732088 65.8693846,57.6732088 C65.7961978,57.5758462 65.6988352,57.478044 65.5768571,57.4294725 L65.5034505,57.4294725 L64.7474066,57.4294725 L64.7474066,57.2099121 L64.7718022,57.1852967 C64.8693846,56.3560659 65.0157582,55.551011 65.1621319,54.7701319 C65.2109231,54.4773846 65.2841099,54.1604615 65.3816923,53.8677143 C65.4060879,53.7211209 65.4792747,53.5993626 65.5524615,53.452989 C65.6012527,53.3551868 65.6256484,53.2576044 65.6744396,53.1602418 C65.723011,53.0138681 65.772022,52.8674945 65.8208132,52.7211209 C65.894,52.4769451 65.9671868,52.2573846 66.0647692,52.0624396 C66.2111429,51.7696923 66.3575165,51.5255165 66.5038901,51.3547473 C66.7476264,51.0378242 67.064989,50.7204615 67.4309231,50.4035385 C67.6016923,50.2325495 67.8456484,50.1107912 68.0652088,50.012989 L68.1627912,49.9644176 C68.235978,49.9398022 68.3091648,49.8912308 68.357956,49.8912308 L68.3823516,49.9154066 L68.4555385,49.9398022 L68.5529011,49.9398022 C68.7238901,49.9398022 68.8214725,49.9154066 68.8946593,49.8666154 L68.9188352,49.8666154 C69.0166374,49.8912308 69.0898242,49.9154066 69.163011,49.9398022 C69.3337802,49.9644176 69.5043297,50.012989 69.6265275,50.0617802 C69.8702637,50.1593626 70.0412527,50.2813407 70.1876264,50.3789231 C70.5291648,50.5984835 70.8950989,50.8426593 71.1878462,51.1351868 C71.6513626,51.5501319 72.1636703,52.0624396 72.626967,52.5989231 C72.9929011,53.038044 73.2370769,53.5261758 73.3346593,53.9894725 C73.4322418,54.4041978 73.481033,54.8677143 73.5054286,55.5263956 C73.5542198,55.9169451 73.5542198,56.2828791 73.5298242,56.6973846 L73.5298242,57.0879341 L73.5298242,57.1367253 L73.5054286,57.1367253 L72.7733407,57.2099121 L72.7001538,57.2099121 L72.626967,57.2584835 C72.5537802,57.2830989 72.432022,57.3316703 72.3588352,57.4048571 L72.310044,57.4536484 L72.2856484,57.5026593 C72.1878462,57.6976044 72.2856484,57.9171648 72.3342198,58.014967 L72.4074066,58.1367253 L72.5783956,58.1855165 C72.6515824,58.2345275 72.797956,58.2830989 72.9443297,58.2345275 C73.1638901,58.2345275 73.3588352,58.2099121 73.5786154,58.1855165 C73.5298242,58.6004615 73.4566374,59.014967 73.4078462,59.4296923 C73.3834505,59.5518901 73.3588352,59.6736484 73.3588352,59.7956264 C73.3346593,59.9178242 73.3102637,60.0398022 73.3102637,60.1615604 C73.2614725,60.4299121 73.2124615,60.6984835 73.1882857,60.9666154 C73.1150989,61.3571648 73.0660879,61.7716703 72.9929011,62.1376044 L72.9687253,62.1863956 C72.797956,62.9428791 72.626967,63.7233187 72.2368571,64.382 C72.0660879,64.6747473 71.7977363,64.8943077 71.455978,65.0162857 C71.261033,65.0894725 71.0902637,65.1626593 70.8950989,65.2358462 L70.8950989,65.2358462 Z M89.4113626,57.0635385 C89.1918022,57.0389231 88.9722418,57.0389231 88.7526813,57.0635385 C88.7282857,56.9657363 88.7282857,56.843978 88.7282857,56.7461758 C88.7282857,56.5998022 88.7038901,56.4778242 88.7038901,56.3314505 L88.7038901,55.380022 L88.7038901,55.3314505 C88.6794945,55.2092527 88.6794945,55.0872747 88.6550989,54.9409011 C88.6307033,54.6727692 88.6307033,54.380022 88.5575165,54.0872747 C88.4355385,53.6235385 88.2401538,53.1602418 88.0452088,52.7452967 L88.0205934,52.6965055 C87.850044,52.4037582 87.6304835,52.0866154 87.3377363,51.6965055 C87.2155385,51.5255165 87.044989,51.4037582 86.8986154,51.2573846 C86.8254286,51.1841978 86.7278462,51.111011 86.6546593,51.0378242 C86.5082857,50.9158462 86.3863077,50.7694725 86.2399341,50.6472747 C86.117956,50.5252967 85.9715824,50.4035385 85.8252088,50.2571648 C85.5324615,49.9644176 85.1907033,49.6958462 84.8247692,49.4762857 C84.6298242,49.3299121 84.3856484,49.1835385 84.0929011,49.0615604 C83.7515824,48.963978 83.3856484,48.8666154 82.9953187,48.7688132 L82.9709231,48.7688132 C82.7513626,48.7444176 82.5071868,48.7444176 82.2634505,48.7444176 C82.0926813,48.7444176 81.9216923,48.842 81.8485055,48.9151868 L81.7999341,48.963978 L81.7753187,49.0371648 C81.7511429,49.0615604 81.7267473,49.0861758 81.6047692,49.1347473 C81.5315824,49.1593626 81.4825714,49.1835385 81.434,49.2079341 L81.3608132,49.2567253 C81.3361978,49.2811209 81.2876264,49.3057363 81.2388352,49.3299121 C81.1656484,49.3789231 81.0680659,49.4274945 80.9948791,49.5006813 C80.5557582,49.8912308 80.2142198,50.2571648 79.8970769,50.5984835 C79.5799341,50.9158462 79.335978,51.3547473 79.164989,51.8670549 C79.0918022,52.0866154 78.9944396,52.3305714 78.8968571,52.5747473 C78.7504835,52.9406813 78.6041099,53.3307912 78.4821319,53.7211209 C78.3113626,54.331011 78.1893846,54.9409011 78.0671868,55.551011 L78.0186154,55.7215604 C77.9208132,56.2828791 77.8966374,56.843978 77.8722418,57.3804615 L77.8722418,57.4536484 L77.7990549,57.4536484 L77.7746593,57.478044 L77.0183956,57.478044 L76.9696044,57.478044 L76.8964176,57.5026593 C76.4816923,57.5512308 76.4329011,57.8685934 76.4329011,58.014967 L76.4329011,58.0635385 C76.4816923,58.4050769 76.750044,58.5758462 77.115978,58.5272747 L77.1403736,58.5272747 C77.2135604,58.5026593 77.2867473,58.4782637 77.3355385,58.4782637 L77.3843297,58.4782637 C77.5063077,58.4782637 77.6282857,58.4540879 77.7746593,58.4540879 L77.8234505,58.4540879 L77.8234505,58.6978242 C77.7990549,59.1613407 77.7990549,59.6250769 77.7990549,60.0641978 C77.7990549,60.5030989 77.8966374,60.918044 77.9698242,61.3325495 L78.0186154,61.5277143 C78.1893846,62.2595824 78.4577363,62.9428791 78.7748791,63.5525495 C79.0432308,63.9916703 79.3113626,64.4066154 79.5799341,64.7479341 C79.7750989,65.0406813 80.0678462,65.4312308 80.4337802,65.723978 C80.8485055,66.0655165 81.3608132,66.3336484 81.9948791,66.5288132 C82.0680659,66.5532088 82.1412527,66.5778242 82.2144396,66.6263956 C82.3608132,66.6751868 82.5318022,66.7483736 82.726967,66.7727692 C82.8733407,66.7973846 83.0197143,66.7973846 83.1660879,66.7973846 C83.5564176,66.7973846 83.9465275,66.7483736 84.3856484,66.602 C84.6783956,66.480022 84.9957582,66.3582637 85.2885055,66.2362857 C85.5566374,66.1140879 85.8496044,65.9923297 86.1423516,65.8945275 C86.8496044,65.6261758 87.2155385,65.0652967 87.4597143,64.552989 C87.6060879,64.2356264 87.7278462,63.8943077 87.8256484,63.5283736 C87.850044,63.4061758 87.8988352,63.2841978 87.9232308,63.1624396 C88.0452088,62.7962857 88.166967,62.4303516 88.2401538,62.040022 C88.337956,61.3571648 88.4355385,60.6494725 88.5329011,59.991011 L88.6060879,59.5028791 C88.6550989,59.1613407 88.7038901,58.8685934 88.7282857,58.5514505 L88.7526813,58.4782637 L88.7526813,58.0881538 C88.9966374,58.0635385 89.2405934,58.0391429 89.4845495,57.9903516 C89.6797143,57.965956 89.7772967,57.8195824 89.8016923,57.7707912 L90.070044,57.5268352 L89.8016923,57.2584835 C89.7526813,57.2099121 89.6309231,57.0879341 89.4113626,57.0635385 L89.4113626,57.0635385 Z M85.0201538,65.2358462 C84.8247692,65.3334286 84.6298242,65.4312308 84.4588352,65.4798022 C84.0929011,65.6017802 83.6783956,65.6993626 83.2148791,65.7725495 C82.9953187,65.7971648 82.8001538,65.7725495 82.5805934,65.6507912 C82.483011,65.6017802 82.3608132,65.5776044 82.2390549,65.552989 C82.1658681,65.5285934 82.0926813,65.5044176 82.0438901,65.4798022 L82.0194945,65.4798022 C81.5803736,65.3334286 81.2144396,65.1138681 80.9460879,64.7967253 C80.6289451,64.4798022 80.3361978,64.0892527 80.0434505,63.6257363 C79.8238901,63.2841978 79.6531209,62.9182637 79.4577363,62.5281538 C79.4091648,62.405956 79.335978,62.2595824 79.2871868,62.1622198 C79.2381758,62.0644176 79.214,61.9426593 79.1896044,61.7962857 C79.164989,61.6984835 79.1408132,61.6009011 79.1164176,61.5035385 C79.0676264,61.3325495 79.0186154,61.1861758 78.9944396,61.0644176 L78.9944396,61.0398022 C78.9212527,60.7226593 78.8722418,60.4057363 78.8480659,60.112989 C78.8480659,59.9666154 78.8480659,59.820022 78.8722418,59.6736484 C78.8722418,59.5028791 78.8968571,59.3323297 78.8968571,59.1613407 C78.8968571,58.8932088 78.8722418,58.6736484 78.8480659,58.4294725 L79.6287253,58.4294725 L79.7019121,58.4294725 C79.7750989,58.3809011 79.8482857,58.3562857 79.8726813,58.3077143 L79.9214725,58.3077143 L80.4581758,58.1123297 L80.0434505,57.6976044 C80.0190549,57.6976044 80.0190549,57.6732088 79.9946593,57.6732088 C79.9214725,57.5758462 79.8238901,57.478044 79.7019121,57.4294725 L79.6287253,57.4294725 L78.8722418,57.4294725 L78.8722418,57.2099121 L78.8968571,57.1852967 C78.9944396,56.3560659 79.1408132,55.551011 79.2871868,54.7701319 C79.335978,54.4773846 79.4091648,54.1604615 79.5067473,53.8677143 C79.5311429,53.7211209 79.6043297,53.5993626 79.6775165,53.452989 C79.7263077,53.3551868 79.7507033,53.2576044 79.7994945,53.1602418 C79.8482857,53.0138681 79.8970769,52.8674945 79.9458681,52.7211209 C80.0190549,52.4769451 80.0922418,52.2573846 80.1898242,52.0624396 C80.3361978,51.7696923 80.4825714,51.5255165 80.6289451,51.3547473 C80.8729011,51.0378242 81.1898242,50.7204615 81.5557582,50.4035385 C81.7267473,50.2325495 81.9707033,50.1107912 82.1902637,50.012989 L82.2876264,49.9644176 C82.3608132,49.9398022 82.434,49.8912308 82.483011,49.8912308 L82.5071868,49.9154066 L82.5805934,49.9398022 L82.6781758,49.9398022 C82.8489451,49.9398022 82.9465275,49.9154066 83.0197143,49.8666154 L83.0441099,49.8666154 C83.1416923,49.8912308 83.2148791,49.9154066 83.2880659,49.9398022 C83.4588352,49.9644176 83.6296044,50.012989 83.7515824,50.0617802 C83.9955385,50.1593626 84.1660879,50.2813407 84.3124615,50.3789231 C84.6542198,50.5984835 85.0201538,50.8426593 85.3129011,51.1351868 C85.7764176,51.5501319 86.2887253,52.0624396 86.7522418,52.5989231 C87.1181758,53.038044 87.3619121,53.5261758 87.4597143,53.9894725 C87.5572967,54.4041978 87.6060879,54.8677143 87.6304835,55.5263956 C87.6792747,55.9169451 87.6792747,56.2828791 87.6546593,56.6973846 L87.6546593,57.0879341 L87.6546593,57.1367253 L87.6304835,57.1367253 L86.8986154,57.2099121 L86.8254286,57.2099121 L86.7522418,57.2584835 C86.6790549,57.2830989 86.5570769,57.3316703 86.4838901,57.4048571 L86.4350989,57.4536484 L86.4107033,57.5026593 C86.3131209,57.6976044 86.4107033,57.9171648 86.4594945,58.014967 L86.5326813,58.1367253 L86.7032308,58.1855165 C86.7766374,58.2345275 86.923011,58.2830989 87.0691648,58.2345275 C87.2887253,58.2345275 87.4841099,58.2099121 87.7036703,58.1855165 C87.6546593,58.6004615 87.5814725,59.014967 87.5329011,59.4296923 C87.5082857,59.5518901 87.4841099,59.6736484 87.4841099,59.7956264 C87.4597143,59.9178242 87.4350989,60.0398022 87.4350989,60.1615604 C87.3865275,60.4299121 87.3377363,60.6984835 87.3133407,60.9666154 C87.2401538,61.3571648 87.1913626,61.7716703 87.1181758,62.1376044 L87.0937802,62.1863956 C86.923011,62.9428791 86.7522418,63.7233187 86.3619121,64.382 C86.1911429,64.6747473 85.9227912,64.8943077 85.5812527,65.0162857 C85.3860879,65.0894725 85.2153187,65.1626593 85.0201538,65.2358462 L85.0201538,65.2358462 Z M99.6087253,61.1376044 C99.5111429,60.8448571 99.4133407,60.5521099 99.2427912,60.2347473 C99.1208132,60.0641978 98.9988352,59.942 98.8524615,59.7956264 C98.7548791,59.6982637 98.6572967,59.6250769 98.6085055,59.5272747 L98.5353187,59.4296923 C98.3889451,59.2345275 98.2425714,58.9905714 97.9498242,58.7954066 C97.7790549,58.6736484 97.6080659,58.5272747 97.4375165,58.3562857 C97.2911429,58.2345275 97.1689451,58.1123297 96.9983956,57.9903516 C96.7788352,57.843978 96.5592747,57.7222198 96.3638901,57.5758462 C96.2665275,57.5268352 96.1689451,57.478044 96.0713626,57.4048571 C96.1689451,57.2340879 96.2665275,57.0389231 96.3638901,56.843978 C96.4616923,56.6241978 96.5834505,56.4046374 96.6812527,56.1850769 L96.7056484,56.1365055 C96.7544396,56.0143077 96.7544396,55.9169451 96.7298242,55.8437582 L96.7298242,55.7705714 L96.7298242,55.2336484 L96.2175165,55.4532088 C96.1933407,55.4532088 96.1933407,55.4532088 96.1689451,55.4778242 C96.0713626,55.502 95.924989,55.5263956 95.803011,55.6973846 C95.7298242,55.8437582 95.6566374,55.9901319 95.6078462,56.1118901 C95.5834505,56.1850769 95.5590549,56.2582637 95.5102637,56.3070549 L95.1687253,56.9903516 C95.1443297,56.9657363 95.1199341,56.9657363 95.0711429,56.9415604 C94.997956,56.9171648 94.9247692,56.8683736 94.8515824,56.843978 C94.7783956,56.7951868 94.6808132,56.7705714 94.6076264,56.7461758 C94.3636703,56.6488132 94.1441099,56.551011 93.9731209,56.4292527 C93.8513626,56.3560659 93.7293846,56.2828791 93.6071868,56.2096923 C93.3634505,56.0387033 93.1438901,55.9169451 92.9975165,55.6973846 L92.8511429,55.551011 C92.6803736,55.3556264 92.534,55.1850769 92.4608132,54.9896923 C92.290044,54.5995824 92.2656484,54.209033 92.3388352,53.7943077 C92.5096044,52.8916703 92.8267473,52.111011 93.2902637,51.4279341 C93.4608132,51.1841978 93.7293846,50.9158462 94.0709231,50.6472747 C94.4612527,50.3789231 94.9491648,50.0861758 95.5102637,49.9885934 C95.5834505,49.9885934 95.681033,49.9644176 95.7786154,49.9398022 C95.9493846,49.9154066 96.0957582,49.8666154 96.2421319,49.8666154 C96.5348791,49.818044 96.803011,49.9154066 97.1689451,50.1593626 C97.2667473,50.2081538 97.3643297,50.2813407 97.4616923,50.3303516 C97.7544396,50.5009011 97.9986154,50.6472747 98.144989,50.8914505 C98.3889451,51.2327692 98.5597143,51.5011209 98.4621319,51.8182637 C98.4377363,51.8670549 98.4377363,51.9402418 98.4133407,51.9646374 L98.4133407,52.0134286 L98.3889451,52.0624396 L98.3889451,52.111011 C98.3889451,52.282 98.3645495,52.4525495 98.3401538,52.5989231 C98.3401538,52.7452967 98.3157582,52.8916703 98.3157582,53.038044 C98.266967,53.1844176 98.2425714,53.3307912 98.2913626,53.4771648 C98.3645495,53.6479341 98.5109231,53.7699121 98.5841099,53.8189231 L98.6572967,53.8921099 L98.8036703,53.8921099 C99.0232308,53.8921099 99.1937802,53.7211209 99.266967,53.5993626 L99.2915824,53.5503516 L99.2915824,53.5015604 C99.2915824,53.452989 99.315978,53.403978 99.315978,53.3798022 C99.3647692,53.1602418 99.4133407,52.9406813 99.4133407,52.6965055 C99.4133407,52.1598022 99.5355385,51.6474945 99.8038901,51.0378242 L99.8038901,51.0132088 C99.8770769,50.7936484 99.7792747,50.5984835 99.7060879,50.4277143 L99.6819121,50.3789231 L99.6329011,50.3545275 C99.5111429,50.2081538 99.315978,50.2081538 99.2427912,50.2081538 C99.1937802,50.2081538 99.1452088,50.2081538 99.0964176,50.2325495 C99.0232308,50.2571648 98.9744396,50.2571648 98.9256484,50.3057363 C98.6329011,49.8666154 98.2181758,49.6470549 97.8522418,49.4274945 C97.8034505,49.4030989 97.7544396,49.3543077 97.7058681,49.3299121 L97.5594945,49.2567253 C97.2421319,49.1103516 96.9252088,48.9398022 96.5834505,48.8907912 C96.4370769,48.8666154 96.2907033,48.842 96.1443297,48.842 C95.6322418,48.842 95.1443297,49.012989 94.6808132,49.1835385 C94.3880659,49.3057363 94.1194945,49.4762857 93.8513626,49.6226593 C93.7781758,49.6716703 93.704989,49.7202418 93.6318022,49.7448571 C93.0948791,50.0376044 92.6315824,50.5009011 92.3144396,51.062 C92.0704835,51.4523297 91.8997143,51.8670549 91.7533407,52.282 L91.7045495,52.3551868 C91.4605934,52.8916703 91.3874066,53.452989 91.3386154,53.9894725 L91.3142198,54.1604615 C91.241033,54.6727692 91.3627912,55.2092527 91.7289451,55.745956 C92.1924615,56.4292527 92.8511429,56.9903516 93.7781758,57.4536484 C94.0709231,57.600022 94.3880659,57.7463956 94.8027912,57.9171648 C94.6076264,58.2345275 94.4612527,58.5272747 94.3148791,58.820022 L94.3148791,58.8685934 C94.2658681,59.0637582 94.2904835,59.2101319 94.3148791,59.3323297 L94.4612527,59.820022 L94.8515824,59.5518901 L94.875978,59.5518901 C94.9491648,59.5272747 95.0955385,59.4787033 95.1931209,59.3323297 L95.2175165,59.2833187 C95.3394945,59.0881538 95.4614725,58.8685934 95.5590549,58.649033 C95.6078462,58.5514505 95.6566374,58.4782637 95.681033,58.3809011 C95.8761978,58.4782637 96.0713626,58.6004615 96.2421319,58.7222198 C96.3153187,58.771011 96.4129011,58.8441978 96.4860879,58.8932088 C96.803011,59.1127692 97.0957582,59.3077143 97.3399341,59.5760659 C97.4863077,59.7714505 97.6326813,59.942 97.8034505,60.112989 L98.023011,60.3325495 C98.0474066,60.3811209 98.0961978,60.4299121 98.144989,60.4789231 C98.2913626,60.6738681 98.4133407,60.8202418 98.4865275,61.0154066 C98.5109231,61.1376044 98.5597143,61.2593626 98.5841099,61.3813407 C98.7304835,61.8694725 98.8768571,62.3085934 98.8768571,62.8209011 C98.8768571,63.2598022 98.8036703,63.6747473 98.6085055,64.0160659 C98.4621319,64.3334286 98.2425714,64.6261758 98.023011,64.8699121 L98.023011,64.8943077 C97.7302637,65.2848571 97.3643297,65.5044176 96.8276264,65.5776044 C95.8761978,65.723978 95.1443297,65.7481538 94.3880659,65.6993626 C93.8999341,65.674967 93.583011,65.5285934 93.3144396,65.2602418 C93.0219121,64.9674945 92.7291648,64.6747473 92.6071868,64.3088132 C92.6071868,64.2112308 92.5827912,64.0892527 92.5583956,63.9916703 C92.534,63.8943077 92.534,63.7721099 92.5096044,63.6501319 C92.412022,63.2356264 92.3876264,62.9182637 92.412022,62.6013407 L92.412022,62.5523297 C92.412022,62.4791429 92.412022,62.2595824 92.290044,62.089033 C92.2412527,61.9668352 92.2168571,61.8694725 92.2412527,61.7230989 C92.3144396,61.4789231 92.3632308,61.2593626 92.412022,61.0154066 L92.412022,60.9422198 C92.412022,60.7716703 92.3144396,60.6494725 92.2656484,60.5762857 C92.2656484,60.5521099 92.2412527,60.5521099 92.2412527,60.5274945 L92.0704835,60.2835385 L91.8021319,60.4057363 L91.7777363,60.4299121 C91.6801538,60.4543077 91.5337802,60.5030989 91.4605934,60.6738681 L91.4605934,60.6984835 C91.2896044,61.0885934 91.1190549,61.5035385 90.9968571,61.918044 C90.8263077,62.5523297 90.7041099,63.1868352 90.5823516,63.8211209 C90.5335604,64.0406813 90.6799341,64.4066154 90.9236703,64.5283736 L90.9726813,64.552989 C91.0214725,64.5771648 91.070044,64.5771648 91.1432308,64.5771648 C91.3386154,64.5771648 91.4605934,64.4551868 91.5337802,64.3334286 C91.6801538,64.9189231 91.9729011,65.3822198 92.412022,65.7725495 C92.8021319,66.1387033 93.2902637,66.5046374 93.9245495,66.602 C94.2172967,66.651011 94.5344396,66.6751868 94.8271868,66.6751868 L95.2663077,66.6751868 L95.7542198,66.6751868 L95.7786154,66.6751868 C95.9005934,66.6751868 95.997956,66.651011 96.1201538,66.6263956 C96.2421319,66.6263956 96.3638901,66.602 96.4860879,66.602 C97.2911429,66.602 97.9498242,66.3582637 98.4621319,65.8703516 C98.8280659,65.5285934 99.1696044,65.1384835 99.4623516,64.6747473 C99.7550989,64.138044 99.9256484,63.5283736 99.9256484,62.8450769 C99.9256484,62.405956 99.8524615,61.8936484 99.6819121,61.3571648 C99.6575165,61.283978 99.6329011,61.2107912 99.6087253,61.1376044 L99.6087253,61.1376044 Z" id="Fill-7" sketch:type="MSShapeGroup"></path>
                <path d="M45.9558462,22.9845275 C45.4793626,22.9845275 44.9791429,23.4372747 44.9074945,24.128044 L44.9074945,24.2948571 C44.9074945,24.8427692 45.1934286,25.4383736 45.7652967,25.5098022 L45.8604615,25.5098022 C46.3609011,25.5098022 46.6943077,24.9856264 46.7896923,24.3425495 L46.7896923,24.152 C46.7896923,23.6515604 46.5277143,23.0322198 46.0272747,23.0082637 C46.0035385,22.9845275 45.9795824,22.9845275 45.9558462,22.9845275 M87.2663956,22.9845275 C86.7896923,22.9845275 86.2896923,23.4372747 86.2182637,24.128044 L86.2182637,24.2948571 C86.2182637,24.8427692 86.503978,25.4383736 87.0756264,25.5098022 L87.171011,25.5098022 C87.6712308,25.5098022 88.0048571,24.9856264 88.100022,24.3425495 L88.100022,24.152 C88.100022,23.6515604 87.8382637,23.0322198 87.3378242,23.0082637 C87.3140879,22.9845275 87.2901319,22.9845275 87.2663956,22.9845275" id="Fill-9" sketch:type="MSShapeGroup"></path>
                <path d="M57.6056044,33.7053626 C57.0579121,35.4207473 56.5097802,36.8262418 56.0332967,37.8745934 C55.5807692,38.9227253 54.8658242,40.3521758 54.0084615,41.4005275 C53.5794505,41.9007473 53.1743956,42.1627253 52.8172527,42.138989 L52.7695604,42.138989 C52.0785714,42.1152527 51.8878022,40.924044 51.8878022,39.7565714 L51.8878022,39.5422857 C51.8878022,38.7798681 51.9831868,38.0414066 52.1023077,37.3981099 C52.2691209,36.5165714 52.5075824,35.658989 52.840989,34.7774505 C53.5078022,32.9906374 54.5798901,31.0130549 56.1047253,30.3222857 C56.319011,30.2269011 56.5097802,30.1794286 56.7003297,30.1794286 C57.2482418,30.1794286 57.7724176,30.5605275 58.2726374,31.298989 C58.1058242,32.0376703 57.8675824,32.8475604 57.6056044,33.7053626 M11.5067033,24.3901978 C12.1020879,25.5097582 12.5785714,26.700967 12.9359341,27.7730549 C13.5315385,29.7743736 13.5554945,31.4181099 12.5785714,31.7277802 C11.5304396,32.0376703 10.791978,31.704044 10.3392308,31.0130549 C9.91043956,30.346022 9.69593407,29.3930549 9.69593407,28.1781099 C9.69593407,26.9631648 9.83901099,25.7005275 10.1486813,24.3901978 C10.2678022,23.866022 10.4106593,23.3418462 10.5774725,22.8416264 C10.9110989,23.3181099 11.2207692,23.8422857 11.5067033,24.3901978 M91.9836264,36.2069011 C91.1018681,38.4939341 90.0297802,40.8286593 89.0053846,42.0912967 C88.4574725,42.7822857 87.9332967,43.1633846 87.4807692,43.0682198 C87.0757143,42.9728352 86.7897802,42.544044 86.622967,41.7816264 C86.4803297,41.0192088 86.4089011,40.0901978 86.4326374,38.9704176 C86.4326374,37.7554725 86.5278022,36.3974505 86.6943956,35.0394286 C86.9089011,32.9429451 87.2664835,30.8464615 87.5524176,29.2501978 C87.3618681,29.1073407 87.1234066,29.011956 86.8374725,28.9405275 C86.766044,28.9165714 86.6706593,28.8928352 86.5992308,28.9165714 C86.4326374,28.9165714 86.2658242,28.9642637 86.099011,29.0596484 C85.9082418,29.9886593 85.6941758,31.0847033 85.4557143,32.3233846 C85.1023077,34.2767912 84.9238462,35.9956923 84.8625275,37.3706374 C84.8078022,37.5027253 84.7521978,37.637011 84.6932967,37.7792088 C84.1214286,39.1132747 83.3115385,40.9717363 82.1917582,42.5200879 C81.071978,44.1161319 80.0238462,43.758989 79.7379121,42.1152527 C79.451978,40.4236044 79.5473626,38.5176703 79.5710989,37.1836044 L79.6427473,35.1825055 C79.7141758,33.2049231 79.6664835,31.3466813 79.19,30.2745934 C78.928022,29.7029451 78.5467033,29.3455824 77.9750549,29.3216264 C77.0458242,29.3216264 76.1405495,30.1077802 75.3781319,31.1321758 C74.2108791,32.657011 73.3530769,34.6820659 73.1625275,35.1585495 L73.1625275,33.4671209 C73.1625275,32.8715165 73.1387912,32.251956 73.1148352,31.6326154 C72.9957143,29.3693187 72.5431868,27.2490989 70.9471429,27.129978 L70.7803297,27.129978 C70.2321978,27.129978 69.6842857,27.3682198 69.1126374,27.8684396 C67.9930769,28.8451429 67.1113187,30.6082198 66.6113187,31.8708571 C66.3251648,32.5378901 66.1108791,33.0858022 66.0869231,33.3003077 L65.9915385,28.8214066 C65.6104396,28.5117363 64.9196703,28.7737143 64.6574725,29.1548132 C64.7768132,30.9416264 64.8245055,32.5141538 64.8482418,34.038989 C64.8620879,34.8526154 64.8653846,35.6559121 64.8631868,36.4534945 L64.3954945,37.5649231 C64.180989,38.0651429 63.9664835,38.5416264 63.7282418,39.0418462 C62.8469231,40.8526154 61.7985714,42.544044 60.917033,42.4486593 C60.7741758,42.4249231 60.6313187,42.3058022 60.5121978,42.0912967 C60.3930769,41.877011 60.273956,41.5671209 60.1785714,41.209978 C59.7974725,39.8042637 59.582967,37.4695385 59.5115385,35.1585495 C59.4401099,32.7998681 59.5352747,30.4890989 59.8214286,29.3216264 C59.7020879,29.2501978 59.5592308,29.2264615 59.4401099,29.2264615 L59.3447253,29.2264615 C59.1779121,29.2501978 59.0350549,29.2739341 58.8921978,29.3455824 C58.8445055,29.5121758 58.7730769,29.7029451 58.6776923,29.9649231 C58.6062637,30.2269011 58.5108791,30.4890989 58.4157143,30.7987692 C57.6532967,29.5598681 56.5812088,29.1787692 55.4614286,29.5361319 C53.4069231,30.1264615 51.1897802,33.0112967 50.3849451,36.9365714 C49.5636264,38.9781099 48.6104396,40.9629451 47.6950549,42.0912967 C47.1471429,42.7822857 46.622967,43.1633846 46.1702198,43.0682198 C45.7651648,42.9728352 45.4794505,42.544044 45.3126374,41.7816264 C45.1697802,41.0192088 45.0981319,40.0901978 45.1220879,38.9704176 C45.1220879,37.7554725 45.2172527,36.3974505 45.3840659,35.0394286 C45.5985714,32.9429451 45.9559341,30.8464615 46.2416484,29.2501978 C46.0510989,29.1073407 45.8128571,29.011956 45.5269231,28.9405275 C45.4554945,28.9165714 45.3603297,28.8928352 45.2886813,28.9165714 C45.1220879,28.9165714 44.9552747,28.9642637 44.7884615,29.0596484 C44.5979121,29.9886593 44.3834066,31.0847033 44.1451648,32.3233846 C43.8713187,33.837011 43.7027473,35.2095385 43.6117582,36.3910769 C43.1576923,37.6075604 42.4568132,39.4414066 41.5961538,41.186022 C40.3335165,43.8543736 38.760989,46.2842637 37.546044,45.9745934 C36.879011,45.784044 36.5930769,44.8073407 36.5693407,43.3778901 C36.5216484,42.0436044 36.6168132,40.3761319 36.879011,38.3985495 C37.140989,36.4211868 37.3554945,34.4200879 37.5223077,32.4425055 C37.808022,29.1787692 37.8796703,26.1530549 37.1172527,24.3662418 C36.7121978,23.4132747 36.0451648,22.8176703 35.0684615,22.7462418 C33.5673626,22.6748132 32.0427473,24.6998681 30.7324176,27.2728352 C29.4220879,29.7743736 28.3262637,32.8238242 27.6592308,34.991956 C27.2779121,36.1592088 27.0396703,37.0884396 26.9445055,37.4932747 C26.991978,37.1836044 27.0636264,36.5403077 27.1827473,35.5873407 C27.3018681,34.6345934 27.420989,33.5148132 27.5161538,32.2042637 C27.6115385,30.8464615 27.7067033,29.2978901 27.7067033,27.7016264 C27.7306593,25.7956923 27.682967,23.866022 27.420989,22.1506374 C26.9682418,18.9820659 25.9438462,16.5282198 23.8236264,16.5044835 L23.7759341,16.5044835 C22.6324176,16.5044835 21.4649451,17.5051429 20.511978,18.9106374 C19.5352747,20.2686593 18.7728571,21.9838242 18.3440659,23.2466813 C18.2726374,22.5556923 18.1535165,21.9363516 18.0104396,21.3644835 C17.3673626,18.6723956 16.1521978,17.1238242 14.2462637,17.1238242 L14.0796703,17.1238242 C13.4124176,17.1477802 12.7453846,17.648 12.1497802,18.4818462 C11.6018681,19.2203077 11.0776923,20.220967 10.6251648,21.3407473 C9.29087912,19.9827253 7.79,19.0774505 6.38450549,19.1251429 C5.4078022,19.1488791 4.66912088,19.5776703 4.19263736,20.1732747 C3.74010989,20.7688791 3.50186813,21.4359121 3.50186813,22.1983297 L3.50186813,22.3411868 C3.5256044,23.175033 3.78758242,23.7945934 4.28802198,24.1996484 C4.74054945,24.557011 5.31241758,24.6521758 6.05087912,24.4378901 C5.97945055,24.2233846 5.90802198,24.0565714 5.88406593,23.9614066 C5.43153846,24.0328352 5.07417582,23.8897582 4.85967033,23.6277802 C4.28802198,23.0321758 4.33571429,21.6981099 4.8121978,20.7211868 C5.16956044,20.0781099 5.69351648,19.5776703 6.38450549,19.5539341 C7.64714286,19.5062418 9.05263736,20.7211868 10.2678022,22.3888791 C9.95813187,23.2704176 9.71989011,24.1996484 9.55307692,25.1286593 C9.05263736,27.7255824 9.05263736,30.2985495 9.98186813,31.6563516 C10.5297802,32.4901978 11.459011,32.8475604 12.7930769,32.4425055 C14.5321978,31.8945934 14.8658242,30.0363516 14.3179121,27.8684396 C14.031978,26.6534945 13.4840659,25.3906374 12.7930769,24.2233846 C12.2689011,23.3181099 11.6495604,22.4603077 10.9585714,21.6981099 L11.2207692,21.1262418 C12.0069231,19.2917363 13.0550549,17.9576703 14.1034066,17.8862418 C14.9849451,17.8625055 15.628022,18.6723956 16.0330769,20.0304176 C16.8669231,22.5794286 17.0337363,27.106022 16.8669231,31.8708571 C16.7478022,35.8495385 16.3904396,39.9710769 15.9853846,43.3064615 C16.1284615,43.5447033 16.3904396,43.6638242 16.7478022,43.6638242 C17.1051648,43.6638242 17.3910989,43.6161319 17.5816484,43.5207473 C17.6530769,43.0442637 17.7007692,42.5677802 17.7484615,42.0675604 C17.939011,40.0901978 18.200989,37.6123956 18.3917582,34.7537143 C18.63,31.4658022 18.7251648,28.3449231 18.5823077,25.6528352 C18.7491209,24.6998681 19.1064835,23.3895385 19.6543956,22.1029451 C20.6310989,19.6253626 22.1559341,17.1477802 23.5853846,17.2192088 C24.2524176,17.2429451 24.7049451,18.0767912 25.0146154,19.4825055 C25.2768132,20.7928352 25.4436264,22.508 25.4910989,24.6284396 C25.5864835,28.8451429 25.4436264,33.2763516 25.3245055,37.1598681 C25.2528571,39.0895385 25.2291209,40.8763516 25.2053846,42.4963516 C25.5627473,42.8537143 26.5157143,42.8774505 26.8253846,42.2818462 C27.0873626,39.9948132 27.8020879,37.0407473 28.7550549,34.1818462 C29.8985714,30.7510769 31.3757143,27.4156923 32.7097802,25.5814066 C33.4482418,24.557011 34.1154945,23.9614066 34.6871429,23.9614066 C35.4258242,23.9851429 35.7592308,24.6044835 35.926044,25.6288791 C36.188022,27.5348132 35.6878022,30.8225055 35.2350549,34.2532747 C34.8776923,37.0884396 34.5442857,40.0187692 34.7348352,42.3295385 C34.9253846,44.5214066 35.5686813,46.1414066 37.0932967,46.5941538 C37.2840659,46.6416264 37.4746154,46.6655824 37.6651648,46.6655824 C38.1179121,46.6655824 38.5467033,46.4987692 38.9517582,46.1890989 C39.5471429,45.7363516 40.0952747,45.117011 40.6431868,44.3308571 C41.1910989,43.497011 41.7152747,42.4963516 42.1917582,41.471956 C42.6205495,40.4952527 43.0016484,39.566022 43.3352747,38.6607473 C43.4025275,38.4776703 43.4664835,38.3047033 43.5282418,38.137011 C43.5267033,38.2429451 43.5258242,38.346022 43.5258242,38.4462418 C43.5258242,38.8512967 43.5258242,39.2323956 43.5495604,39.6374505 C43.6212088,40.7572308 43.8354945,41.6625055 44.1928571,42.3772308 C44.5741758,43.1396484 45.1697802,43.6638242 46.0034066,43.758989 C46.0510989,43.7829451 46.0987912,43.7829451 46.1464835,43.7829451 C46.622967,43.7829451 47.2185714,43.4255824 47.8618681,42.6866813 C48.6697802,41.7838242 49.4875824,40.3741538 50.1976923,38.8097582 C50.1974725,38.8321758 50.1963736,38.8526154 50.1963736,38.875033 L50.1963736,39.3277802 C50.2201099,40.2093187 50.4346154,40.9477802 50.791978,41.5671209 C51.1972527,42.2581099 51.8163736,42.7108571 52.7458242,42.7822857 C53.7223077,42.806022 54.7467033,41.6625055 55.6047253,40.1616264 C56.4620879,38.7084396 57.1530769,36.8976703 57.6056044,35.635033 C57.8675824,34.9442637 57.9867033,34.3963516 58.0583516,34.1341538 C57.9867033,35.2776703 57.9392308,36.7785495 58.0343956,38.208 C58.1535165,40.8763516 58.7491209,43.4255824 60.2976923,43.5447033 C60.3453846,43.5684396 60.3930769,43.5684396 60.4405495,43.5684396 C61.7748352,43.5684396 63.0851648,41.6148132 64.1095604,39.4945934 C64.380989,38.9517363 64.63,38.4097582 64.8508791,37.8974505 C64.8493407,37.9926154 64.85,38.0895385 64.8482418,38.1842637 C64.8245055,39.5422857 64.8003297,40.9954725 64.8245055,42.5677802 C65.1818681,42.829978 65.7532967,43.0442637 66.1346154,42.7583297 C66.1108791,41.4956923 66.1108791,40.2807473 66.1108791,39.0895385 C66.1108791,36.7071209 65.9438462,35.3967912 66.6827473,33.3717363 C67.420989,31.3466813 68.3976923,29.7981099 69.2315385,29.011956 C70.0653846,28.2258022 70.7563736,28.2972308 71.066044,29.0833846 C71.2328571,29.4884396 71.3757143,30.0126154 71.4948352,30.7033846 C71.9715385,33.1811868 72.1146154,37.3504176 72.0192308,41.0669011 C72.4003297,41.186022 72.8291209,41.3290989 73.1864835,41.0431648 L73.1864835,37.0884396 C73.2102198,36.8262418 73.4007692,36.2545934 73.7581319,35.3730549 C74.4491209,33.6339341 75.4020879,32.2282198 76.1642857,31.5372308 C76.902967,30.7987692 77.6891209,30.7273407 77.8559341,31.8469011 C77.9510989,32.395033 77.9987912,33.1097582 77.9750549,33.9673407 C77.9510989,34.8965714 77.9034066,35.9447033 77.8796703,37.0167912 C77.8559341,38.6607473 77.9034066,40.3761319 78.2847253,41.6862418 C78.6658242,42.9490989 79.3328571,43.9020659 80.5003297,44.1161319 C80.5954945,44.1403077 80.6908791,44.1403077 80.7862637,44.1403077 C82.0249451,44.1403077 83.3115385,42.138989 84.4313187,39.7805275 C84.5726374,39.4695385 84.708022,39.1600879 84.8385714,38.8556923 C84.8403297,39.1143736 84.8447253,39.3715165 84.8603297,39.6374505 C84.9317582,40.7572308 85.146044,41.6625055 85.5034066,42.3772308 C85.8847253,43.1396484 86.4803297,43.6638242 87.3141758,43.758989 C87.3618681,43.7829451 87.4093407,43.7829451 87.457033,43.7829451 C87.9332967,43.7829451 88.5289011,43.4255824 89.1724176,42.6866813 C90.3871429,41.3290989 91.626044,38.8275604 92.4836264,36.3737143 C92.2693407,36.3020659 92.1025275,36.2306374 91.9836264,36.2069011" id="Fill-11" sketch:type="MSShapeGroup"></path>
            </g>
        </g>
    </g>
</svg>